<svg width="367" height="243" viewBox="0 0 367 243" fill="none" xmlns="http://www.w3.org/2000/svg">
<path d="M144.33 7.78977V6.86932H149.58V7.78977H144.33ZM144.33 10.3125V9.39205H149.58V10.3125H144.33Z" fill="black"/>
<path d="M191.591 168.182L191.659 166.307L190.074 167.312L189.665 166.597L191.335 165.727L189.665 164.858L190.074 164.142L191.659 165.148L191.591 163.273H192.409L192.341 165.148L193.926 164.142L194.335 164.858L192.665 165.727L194.335 166.597L193.926 167.312L192.341 166.307L192.409 168.182H191.591Z" fill="black"/>
<path d="M265.591 168.182L265.659 166.307L264.074 167.312L263.665 166.597L265.335 165.727L263.665 164.858L264.074 164.142L265.659 165.148L265.591 163.273H266.409L266.341 165.148L267.926 164.142L268.335 164.858L266.665 165.727L268.335 166.597L267.926 167.312L266.341 166.307L266.409 168.182H265.591Z" fill="black"/>
<path d="M96.4148 87.7727V76.8636H98.9375V77.6989H97.3693V86.9375H98.9375V87.7727H96.4148ZM102.279 76.8636V87.7727H99.7567V86.9375H101.325V77.6989H99.7567V76.8636H102.279Z" fill="black"/>
<path d="M2.84659 171.153C2.43182 171.153 2.0554 171.075 1.71733 170.919C1.37926 170.76 1.1108 170.531 0.911932 170.233C0.713068 169.932 0.613636 169.568 0.613636 169.142C0.613636 168.767 0.6875 168.463 0.835227 168.23C0.982955 167.994 1.1804 167.81 1.42756 167.676C1.67472 167.543 1.94744 167.443 2.24574 167.378C2.54688 167.31 2.84943 167.256 3.15341 167.216C3.55114 167.165 3.87358 167.126 4.12074 167.101C4.37074 167.072 4.55256 167.026 4.66619 166.96C4.78267 166.895 4.84091 166.781 4.84091 166.619V166.585C4.84091 166.165 4.72585 165.838 4.49574 165.605C4.26847 165.372 3.9233 165.256 3.46023 165.256C2.98011 165.256 2.60369 165.361 2.33097 165.571C2.05824 165.781 1.86648 166.006 1.75568 166.244L0.801136 165.903C0.971591 165.506 1.19886 165.196 1.48295 164.974C1.76989 164.75 2.08239 164.594 2.42045 164.506C2.76136 164.415 3.09659 164.369 3.42614 164.369C3.63636 164.369 3.87784 164.395 4.15057 164.446C4.42614 164.494 4.69176 164.595 4.94744 164.749C5.20597 164.902 5.42045 165.134 5.59091 165.443C5.76136 165.753 5.84659 166.168 5.84659 166.688V171H4.84091V170.114H4.78977C4.72159 170.256 4.60795 170.408 4.44886 170.57C4.28977 170.732 4.07813 170.869 3.81392 170.983C3.54972 171.097 3.22727 171.153 2.84659 171.153ZM3 170.25C3.39773 170.25 3.73295 170.172 4.00568 170.016C4.28125 169.859 4.48864 169.658 4.62784 169.411C4.76989 169.163 4.84091 168.903 4.84091 168.631V167.71C4.7983 167.761 4.70455 167.808 4.55966 167.851C4.41761 167.891 4.25284 167.926 4.06534 167.957C3.88068 167.986 3.70028 168.011 3.52415 168.034C3.35085 168.054 3.21023 168.071 3.10227 168.085C2.84091 168.119 2.59659 168.175 2.36932 168.251C2.14489 168.325 1.96307 168.437 1.82386 168.588C1.6875 168.736 1.61932 168.937 1.61932 169.193C1.61932 169.543 1.74858 169.807 2.0071 169.986C2.26847 170.162 2.59943 170.25 3 170.25Z" fill="black"/>
<path d="M93.0568 240V231.273H94.0625V234.494H94.1477C94.2216 234.381 94.3239 234.236 94.4545 234.06C94.5881 233.881 94.7784 233.722 95.0256 233.582C95.2756 233.44 95.6136 233.369 96.0398 233.369C96.5909 233.369 97.0767 233.507 97.4972 233.783C97.9176 234.058 98.2457 234.449 98.4815 234.955C98.7173 235.46 98.8352 236.057 98.8352 236.744C98.8352 237.438 98.7173 238.038 98.4815 238.547C98.2457 239.053 97.919 239.445 97.5014 239.723C97.0838 239.999 96.6023 240.136 96.0568 240.136C95.6364 240.136 95.2997 240.067 95.0469 239.928C94.794 239.786 94.5994 239.625 94.4631 239.446C94.3267 239.264 94.2216 239.114 94.1477 238.994H94.0284V240H93.0568ZM94.0455 236.727C94.0455 237.222 94.1179 237.658 94.2628 238.036C94.4077 238.411 94.6193 238.705 94.8977 238.918C95.1761 239.128 95.517 239.233 95.9205 239.233C96.3409 239.233 96.6918 239.122 96.973 238.901C97.2571 238.676 97.4702 238.375 97.6122 237.997C97.7571 237.616 97.8295 237.193 97.8295 236.727C97.8295 236.267 97.7585 235.852 97.6165 235.483C97.4773 235.111 97.2656 234.817 96.9815 234.601C96.7003 234.382 96.3466 234.273 95.9205 234.273C95.5114 234.273 95.1676 234.376 94.8892 234.584C94.6108 234.788 94.4006 235.075 94.2585 235.445C94.1165 235.811 94.0455 236.239 94.0455 236.727Z" fill="black"/>
<path d="M263.057 240V231.273H264.062V234.494H264.148C264.222 234.381 264.324 234.236 264.455 234.06C264.588 233.881 264.778 233.722 265.026 233.582C265.276 233.44 265.614 233.369 266.04 233.369C266.591 233.369 267.077 233.507 267.497 233.783C267.918 234.058 268.246 234.449 268.482 234.955C268.717 235.46 268.835 236.057 268.835 236.744C268.835 237.438 268.717 238.038 268.482 238.547C268.246 239.053 267.919 239.445 267.501 239.723C267.084 239.999 266.602 240.136 266.057 240.136C265.636 240.136 265.3 240.067 265.047 239.928C264.794 239.786 264.599 239.625 264.463 239.446C264.327 239.264 264.222 239.114 264.148 238.994H264.028V240H263.057ZM264.045 236.727C264.045 237.222 264.118 237.658 264.263 238.036C264.408 238.411 264.619 238.705 264.898 238.918C265.176 239.128 265.517 239.233 265.92 239.233C266.341 239.233 266.692 239.122 266.973 238.901C267.257 238.676 267.47 238.375 267.612 237.997C267.757 237.616 267.83 237.193 267.83 236.727C267.83 236.267 267.759 235.852 267.616 235.483C267.477 235.111 267.266 234.817 266.982 234.601C266.7 234.382 266.347 234.273 265.92 234.273C265.511 234.273 265.168 234.376 264.889 234.584C264.611 234.788 264.401 235.075 264.259 235.445C264.116 235.811 264.045 236.239 264.045 236.727Z" fill="black"/>
<path d="M192.67 81.7898V82.7273H188.852V81.7898H192.67Z" fill="black"/>
<path d="M98.9205 171V164.455H99.9261V171H98.9205ZM99.4318 163.364C99.2358 163.364 99.0668 163.297 98.9247 163.163C98.7855 163.03 98.7159 162.869 98.7159 162.682C98.7159 162.494 98.7855 162.334 98.9247 162.2C99.0668 162.067 99.2358 162 99.4318 162C99.6278 162 99.7955 162.067 99.9347 162.2C100.077 162.334 100.148 162.494 100.148 162.682C100.148 162.869 100.077 163.03 99.9347 163.163C99.7955 163.297 99.6278 163.364 99.4318 163.364Z" fill="black"/>
<path d="M192.58 240.136C191.966 240.136 191.438 239.991 190.994 239.702C190.551 239.412 190.21 239.013 189.972 238.504C189.733 237.996 189.614 237.415 189.614 236.761C189.614 236.097 189.736 235.51 189.98 235.001C190.227 234.49 190.571 234.091 191.011 233.804C191.455 233.514 191.972 233.369 192.562 233.369C193.023 233.369 193.438 233.455 193.807 233.625C194.176 233.795 194.479 234.034 194.714 234.341C194.95 234.648 195.097 235.006 195.153 235.415H194.148C194.071 235.116 193.901 234.852 193.636 234.622C193.375 234.389 193.023 234.273 192.58 234.273C192.188 234.273 191.844 234.375 191.548 234.58C191.256 234.781 191.027 235.067 190.862 235.436C190.7 235.803 190.619 236.233 190.619 236.727C190.619 237.233 190.699 237.673 190.858 238.048C191.02 238.423 191.247 238.714 191.54 238.922C191.835 239.129 192.182 239.233 192.58 239.233C192.841 239.233 193.078 239.188 193.291 239.097C193.504 239.006 193.685 238.875 193.832 238.705C193.98 238.534 194.085 238.33 194.148 238.091H195.153C195.097 238.477 194.956 238.825 194.732 239.135C194.51 239.442 194.216 239.686 193.849 239.868C193.486 240.047 193.063 240.136 192.58 240.136Z" fill="black"/>
<path d="M362.392 240.136C361.847 240.136 361.365 239.999 360.947 239.723C360.53 239.445 360.203 239.053 359.967 238.547C359.732 238.038 359.614 237.438 359.614 236.744C359.614 236.057 359.732 235.46 359.967 234.955C360.203 234.449 360.531 234.058 360.952 233.783C361.372 233.507 361.858 233.369 362.409 233.369C362.835 233.369 363.172 233.44 363.419 233.582C363.669 233.722 363.859 233.881 363.99 234.06C364.124 234.236 364.227 234.381 364.301 234.494H364.386V231.273H365.392V240H364.42V238.994H364.301C364.227 239.114 364.122 239.264 363.986 239.446C363.849 239.625 363.655 239.786 363.402 239.928C363.149 240.067 362.813 240.136 362.392 240.136ZM362.528 239.233C362.932 239.233 363.273 239.128 363.551 238.918C363.83 238.705 364.041 238.411 364.186 238.036C364.331 237.658 364.403 237.222 364.403 236.727C364.403 236.239 364.332 235.811 364.19 235.445C364.048 235.075 363.838 234.788 363.56 234.584C363.281 234.376 362.938 234.273 362.528 234.273C362.102 234.273 361.747 234.382 361.463 234.601C361.182 234.817 360.97 235.111 360.828 235.483C360.689 235.852 360.619 236.267 360.619 236.727C360.619 237.193 360.69 237.616 360.832 237.997C360.977 238.375 361.19 238.676 361.472 238.901C361.756 239.122 362.108 239.233 362.528 239.233Z" fill="black"/>
<line x1="101.605" y1="71.6941" x2="142.605" y2="18.6941" stroke="black"/>
<line x1="6.69335" y1="157.605" x2="91.6934" y2="91.6051" stroke="black"/>
<line x1="98.7354" y1="225.576" x2="183.735" y2="172.576" stroke="black"/>
<line x1="151.415" y1="18.7209" x2="188.415" y2="73.7209" stroke="black"/>
<line x1="99.5" y1="92" x2="99.5" y2="158" stroke="black"/>
<line x1="191.5" y1="173" x2="191.5" y2="226" stroke="black"/>
<line y1="-0.5" x2="100.17" y2="-0.5" transform="matrix(-0.848559 -0.529101 -0.529101 0.848559 356 228)" stroke="black"/>
<line y1="-0.5" x2="53" y2="-0.5" transform="matrix(4.37114e-08 1 1 -4.37114e-08 264 175)" stroke="black"/>
<line x1="191.5" y1="92" x2="191.5" y2="158" stroke="black"/>
<line x1="263.638" y1="158.345" x2="200.638" y2="92.3452" stroke="black"/>
</svg>
