<svg width="106" height="307" viewBox="0 0 106 307" fill="none" xmlns="http://www.w3.org/2000/svg">
<path d="M2.67045 297.455L4.23864 300.131L5.80682 297.455H6.96591L4.85227 300.727L6.96591 304H5.80682L4.23864 301.46L2.67045 304H1.51136L3.59091 300.727L1.51136 297.455H2.67045Z" fill="black"/>
<path d="M3.47727 230.403V224.778H4.43182V230.403H3.47727ZM1.14205 228.068V227.114H6.76705V228.068H1.14205Z" fill="black"/>
<path d="M4.67045 80.7898V81.7273H0.852273V80.7898H4.67045Z" fill="black"/>
<path d="M98.5682 306.455C98.3977 306.455 98.2457 306.44 98.1122 306.412C97.9787 306.386 97.8864 306.361 97.8352 306.335L98.0909 305.449C98.3352 305.511 98.5511 305.534 98.7386 305.517C98.9261 305.5 99.0923 305.416 99.2372 305.266C99.3849 305.118 99.5199 304.878 99.642 304.545L99.8295 304.034L97.4091 297.455H98.5L100.307 302.67H100.375L102.182 297.455H103.273L100.494 304.955C100.369 305.293 100.214 305.572 100.03 305.794C99.8452 306.018 99.6307 306.185 99.3864 306.293C99.1449 306.401 98.8722 306.455 98.5682 306.455Z" fill="black"/>
<path d="M102.67 226.79V227.727H98.8523V226.79H102.67Z" fill="black"/>
<path d="M100.591 154.182L100.659 152.307L99.0739 153.312L98.6648 152.597L100.335 151.727L98.6648 150.858L99.0739 150.142L100.659 151.148L100.591 149.273H101.409L101.341 151.148L102.926 150.142L103.335 150.858L101.665 151.727L103.335 152.597L102.926 153.312L101.341 152.307L101.409 154.182H100.591Z" fill="black"/>
<path d="M101.477 11.4034V5.77841H102.432V11.4034H101.477ZM99.142 9.06818V8.11364H104.767V9.06818H99.142Z" fill="black"/>
<line x1="4.5" y1="291" x2="4.5" y2="236" stroke="black"/>
<line x1="4.5" y1="219" x2="4.50001" y2="90" stroke="black"/>
<line x1="100.5" y1="291" x2="100.5" y2="236" stroke="black"/>
<line x1="100.5" y1="218" x2="100.5" y2="163" stroke="black"/>
<line x1="100.5" y1="142" x2="100.5" y2="17" stroke="black"/>
<line x1="12.7167" y1="290.588" x2="92.7167" y2="235.588" stroke="black"/>
<line x1="12.7167" y1="217.588" x2="92.7167" y2="162.588" stroke="black"/>
<line x1="12.7167" y1="71.588" x2="92.7167" y2="16.588" stroke="black"/>
<line x1="92.7133" y1="292.41" x2="12.7133" y2="236.41" stroke="black"/>
<line x1="92.7133" y1="146.41" x2="12.7133" y2="90.4096" stroke="black"/>
</svg>
