<svg width="146" height="247" viewBox="0 0 146 247" fill="none" xmlns="http://www.w3.org/2000/svg">
<path d="M51.4773 11.4034V5.77841H52.4318V11.4034H51.4773ZM49.142 9.06818V8.11364H54.767V9.06818H49.142Z" fill="black"/>
<path d="M97.4773 169.403V163.778H98.4318V169.403H97.4773ZM95.142 167.068V166.114H100.767V167.068H95.142Z" fill="black"/>
<path d="M2.84659 86.1534C2.43182 86.1534 2.0554 86.0753 1.71733 85.919C1.37926 85.7599 1.1108 85.5312 0.911932 85.233C0.713068 84.9318 0.613636 84.5682 0.613636 84.142C0.613636 83.767 0.6875 83.4631 0.835227 83.2301C0.982955 82.9943 1.1804 82.8097 1.42756 82.6761C1.67472 82.5426 1.94744 82.4432 2.24574 82.3778C2.54688 82.3097 2.84943 82.2557 3.15341 82.2159C3.55114 82.1648 3.87358 82.1264 4.12074 82.1009C4.37074 82.0724 4.55256 82.0256 4.66619 81.9602C4.78267 81.8949 4.84091 81.7812 4.84091 81.6193V81.5852C4.84091 81.1648 4.72585 80.8381 4.49574 80.6051C4.26847 80.3722 3.9233 80.2557 3.46023 80.2557C2.98011 80.2557 2.60369 80.3608 2.33097 80.571C2.05824 80.7812 1.86648 81.0057 1.75568 81.2443L0.801136 80.9034C0.971591 80.5057 1.19886 80.196 1.48295 79.9744C1.76989 79.75 2.08239 79.5937 2.42045 79.5057C2.76136 79.4148 3.09659 79.3693 3.42614 79.3693C3.63636 79.3693 3.87784 79.3949 4.15057 79.446C4.42614 79.4943 4.69176 79.5952 4.94744 79.7486C5.20597 79.902 5.42045 80.1335 5.59091 80.4432C5.76136 80.7528 5.84659 81.1676 5.84659 81.6875V86H4.84091V85.1136H4.78977C4.72159 85.2557 4.60795 85.4077 4.44886 85.5696C4.28977 85.7315 4.07813 85.8693 3.81392 85.983C3.54972 86.0966 3.22727 86.1534 2.84659 86.1534ZM3 85.25C3.39773 85.25 3.73295 85.1719 4.00568 85.0156C4.28125 84.8594 4.48864 84.6577 4.62784 84.4105C4.76989 84.1634 4.84091 83.9034 4.84091 83.6307V82.7102C4.7983 82.7614 4.70455 82.8082 4.55966 82.8509C4.41761 82.8906 4.25284 82.9261 4.06534 82.9574C3.88068 82.9858 3.70028 83.0114 3.52415 83.0341C3.35085 83.054 3.21023 83.071 3.10227 83.0852C2.84091 83.1193 2.59659 83.1747 2.36932 83.2514C2.14489 83.3253 1.96307 83.4375 1.82386 83.5881C1.6875 83.7358 1.61932 83.9375 1.61932 84.1932C1.61932 84.5426 1.74858 84.8068 2.0071 84.9858C2.26847 85.1619 2.59943 85.25 3 85.25Z" fill="black"/>
<path d="M47.0568 244V235.273H48.0625V238.494H48.1477C48.2216 238.381 48.3239 238.236 48.4545 238.06C48.5881 237.881 48.7784 237.722 49.0256 237.582C49.2756 237.44 49.6136 237.369 50.0398 237.369C50.5909 237.369 51.0767 237.507 51.4972 237.783C51.9176 238.058 52.2457 238.449 52.4815 238.955C52.7173 239.46 52.8352 240.057 52.8352 240.744C52.8352 241.438 52.7173 242.038 52.4815 242.547C52.2457 243.053 51.919 243.445 51.5014 243.723C51.0838 243.999 50.6023 244.136 50.0568 244.136C49.6364 244.136 49.2997 244.067 49.0469 243.928C48.794 243.786 48.5994 243.625 48.4631 243.446C48.3267 243.264 48.2216 243.114 48.1477 242.994H48.0284V244H47.0568ZM48.0455 240.727C48.0455 241.222 48.1179 241.658 48.2628 242.036C48.4077 242.411 48.6193 242.705 48.8977 242.918C49.1761 243.128 49.517 243.233 49.9205 243.233C50.3409 243.233 50.6918 243.122 50.973 242.901C51.2571 242.676 51.4702 242.375 51.6122 241.997C51.7571 241.616 51.8295 241.193 51.8295 240.727C51.8295 240.267 51.7585 239.852 51.6165 239.483C51.4773 239.111 51.2656 238.817 50.9815 238.601C50.7003 238.382 50.3466 238.273 49.9205 238.273C49.5114 238.273 49.1676 238.376 48.8892 238.584C48.6108 238.788 48.4006 239.075 48.2585 239.445C48.1165 239.811 48.0455 240.239 48.0455 240.727Z" fill="black"/>
<path d="M97.6705 81.7898V82.7273H93.8523V81.7898H97.6705Z" fill="black"/>
<path d="M142.58 244.136C141.966 244.136 141.438 243.991 140.994 243.702C140.551 243.412 140.21 243.013 139.972 242.504C139.733 241.996 139.614 241.415 139.614 240.761C139.614 240.097 139.736 239.51 139.98 239.001C140.227 238.49 140.571 238.091 141.011 237.804C141.455 237.514 141.972 237.369 142.562 237.369C143.023 237.369 143.438 237.455 143.807 237.625C144.176 237.795 144.479 238.034 144.714 238.341C144.95 238.648 145.097 239.006 145.153 239.415H144.148C144.071 239.116 143.901 238.852 143.636 238.622C143.375 238.389 143.023 238.273 142.58 238.273C142.188 238.273 141.844 238.375 141.548 238.58C141.256 238.781 141.027 239.067 140.862 239.436C140.7 239.803 140.619 240.233 140.619 240.727C140.619 241.233 140.699 241.673 140.858 242.048C141.02 242.423 141.247 242.714 141.54 242.922C141.835 243.129 142.182 243.233 142.58 243.233C142.841 243.233 143.078 243.188 143.291 243.097C143.504 243.006 143.685 242.875 143.832 242.705C143.98 242.534 144.085 242.33 144.148 242.091H145.153C145.097 242.477 144.956 242.825 144.732 243.135C144.51 243.442 144.216 243.686 143.849 243.868C143.486 244.047 143.063 244.136 142.58 244.136Z" fill="black"/>
<line x1="6.60452" y1="71.6941" x2="47.6045" y2="18.6941" stroke="black"/>
<line x1="52.6045" y1="229.694" x2="93.6045" y2="176.694" stroke="black"/>
<line x1="56.4149" y1="18.7209" x2="93.4149" y2="73.7209" stroke="black"/>
<line x1="102.415" y1="176.721" x2="139.415" y2="231.721" stroke="black"/>
<line x1="96.5" y1="92" x2="96.5" y2="158" stroke="black"/>
</svg>
