<svg width="350" height="456" viewBox="0 0 350 456" fill="none" xmlns="http://www.w3.org/2000/svg">
<rect x="36.5" y="19.5" width="66" height="31" fill="#D9D9D9"/>
<rect x="36.5" y="19.5" width="66" height="31" stroke="black"/>
<path d="M56.9195 35.74V39.016H61.5395V40H55.8875V30.88H61.3835V31.864H56.9195V34.768H61.1315V35.74H56.9195ZM62.9636 40V33.64H63.9596V34.54H64.0196C64.2116 34.22 64.4916 33.964 64.8596 33.772C65.2356 33.572 65.6116 33.472 65.9876 33.472C66.6916 33.472 67.2436 33.692 67.6436 34.132C68.0436 34.564 68.2436 35.176 68.2436 35.968V40H67.2476V36.112C67.2476 35.6 67.1036 35.184 66.8156 34.864C66.5276 34.544 66.1676 34.384 65.7356 34.384C65.2076 34.384 64.7796 34.556 64.4516 34.9C64.1236 35.236 63.9596 35.68 63.9596 36.232V40H62.9636ZM73.1168 34.576H71.2808V38.224C71.2808 38.576 71.3728 38.848 71.5568 39.04C71.7408 39.232 71.9968 39.328 72.3248 39.328C72.5168 39.328 72.7328 39.288 72.9728 39.208V40.12C72.7568 40.208 72.4728 40.252 72.1208 40.252C71.5288 40.252 71.0728 40.084 70.7528 39.748C70.4408 39.412 70.2848 38.928 70.2848 38.296V34.576H69.2888V33.64H70.2848V31.624H71.2808V33.64H73.1168V34.576ZM74.2019 40V33.64H75.1979V34.852H75.2579C75.5219 34.42 75.8579 34.084 76.2659 33.844C76.6739 33.596 77.1259 33.472 77.6219 33.472H77.7059V34.552H77.5979C77.1099 34.552 76.6859 34.632 76.3259 34.792C75.9659 34.952 75.6859 35.172 75.4859 35.452C75.2939 35.724 75.1979 36.02 75.1979 36.34V40H74.2019ZM80.4053 40L77.9333 33.64H79.0493L80.9693 38.764H81.0413L82.8773 33.64H83.9933L80.4293 42.892H79.3253L80.4053 40Z" fill="black"/>
<rect x="36.5" y="389.5" width="66" height="31" fill="#D9D9D9"/>
<rect x="36.5" y="389.5" width="66" height="31" stroke="black"/>
<path d="M61.3023 405.74V409.016H65.9223V410H60.2703V400.88H65.7663V401.864H61.3023V404.768H65.5143V405.74H61.3023ZM70.0584 406.784L72.2904 410H71.0784L69.4464 407.516L67.7904 410H66.5904L68.8944 406.688L66.7464 403.64H67.9464L69.5304 406.016L71.0424 403.64H72.2184L70.0584 406.784ZM74.5724 401.396C74.5724 401.604 74.5084 401.768 74.3804 401.888C74.2524 402.008 74.0844 402.068 73.8764 402.068C73.6684 402.068 73.5044 402.008 73.3844 401.888C73.2724 401.768 73.2164 401.604 73.2164 401.396C73.2164 401.188 73.2764 401.024 73.3964 400.904C73.5164 400.776 73.6764 400.712 73.8764 400.712C74.0844 400.712 74.2524 400.776 74.3804 400.904C74.5084 401.024 74.5724 401.188 74.5724 401.396ZM74.3924 403.64V410H73.3964V403.64H74.3924ZM79.4567 404.576H77.6207V408.224C77.6207 408.576 77.7127 408.848 77.8967 409.04C78.0807 409.232 78.3367 409.328 78.6647 409.328C78.8567 409.328 79.0727 409.288 79.3127 409.208V410.12C79.0967 410.208 78.8127 410.252 78.4607 410.252C77.8687 410.252 77.4127 410.084 77.0927 409.748C76.7807 409.412 76.6247 408.928 76.6247 408.296V404.576H75.6287V403.64H76.6247V401.624H77.6207V403.64H79.4567V404.576Z" fill="black"/>
<path d="M8.36845 102.236C9.00045 102.324 9.49645 102.556 9.85645 102.932C10.2165 103.308 10.3965 103.78 10.3965 104.348C10.3965 105.196 10.0845 105.852 9.46045 106.316C8.83645 106.772 7.94045 107 6.77245 107H4.01245V97.88H6.76045C7.78445 97.88 8.57245 98.084 9.12445 98.492C9.67645 98.892 9.95245 99.464 9.95245 100.208C9.95245 100.696 9.81245 101.112 9.53245 101.456C9.25245 101.792 8.86445 102.028 8.36845 102.164V102.236ZM5.04445 98.864V101.732H6.65245C7.35645 101.732 7.90045 101.6 8.28445 101.336C8.66845 101.072 8.86045 100.7 8.86045 100.22C8.86045 99.788 8.66445 99.456 8.27245 99.224C7.88845 98.984 7.34045 98.864 6.62845 98.864H5.04445ZM6.62845 106.016C7.49245 106.016 8.15645 105.868 8.62045 105.572C9.08445 105.276 9.31645 104.848 9.31645 104.288C9.31645 103.776 9.08445 103.388 8.62045 103.124C8.16445 102.852 7.50845 102.716 6.65245 102.716H5.04445V106.016H6.62845ZM16.3841 102.236C17.0161 102.324 17.5121 102.556 17.8721 102.932C18.2321 103.308 18.4121 103.78 18.4121 104.348C18.4121 105.196 18.1001 105.852 17.4761 106.316C16.8521 106.772 15.9561 107 14.7881 107H12.0281V97.88H14.7761C15.8001 97.88 16.5881 98.084 17.1401 98.492C17.6921 98.892 17.9681 99.464 17.9681 100.208C17.9681 100.696 17.8281 101.112 17.5481 101.456C17.2681 101.792 16.8801 102.028 16.3841 102.164V102.236ZM13.0601 98.864V101.732H14.6681C15.3721 101.732 15.9161 101.6 16.3001 101.336C16.6841 101.072 16.8761 100.7 16.8761 100.22C16.8761 99.788 16.6801 99.456 16.2881 99.224C15.9041 98.984 15.3561 98.864 14.6441 98.864H13.0601ZM14.6441 106.016C15.5081 106.016 16.1721 105.868 16.6361 105.572C17.1001 105.276 17.3321 104.848 17.3321 104.288C17.3321 103.776 17.1001 103.388 16.6361 103.124C16.1801 102.852 15.5241 102.716 14.6681 102.716H13.0601V106.016H14.6441ZM22.5157 107H21.4717V99.092L19.6957 100.028V98.936L21.7357 97.88H22.5157V107Z" fill="black"/>
<rect x="36.5" y="77.5" width="66" height="49" fill="#D9D9D9"/>
<rect x="36.5" y="77.5" width="66" height="49" stroke="black"/>
<path d="M65.705 99.72C65.249 98.944 64.893 98.076 64.637 97.116C64.381 96.148 64.253 95.216 64.253 94.32C64.253 93.416 64.381 92.484 64.637 91.524C64.893 90.564 65.249 89.696 65.705 88.92H66.701C66.237 89.728 65.877 90.612 65.621 91.572C65.373 92.524 65.249 93.44 65.249 94.32C65.249 95.184 65.377 96.096 65.633 97.056C65.889 98.016 66.245 98.904 66.701 99.72H65.705ZM70.5001 99H69.4561V91.092L67.6801 92.028V90.936L69.7201 89.88H70.5001V99ZM72.3039 99.72C72.7679 98.912 73.1239 98.028 73.3719 97.068C73.6279 96.108 73.7559 95.192 73.7559 94.32C73.7559 93.44 73.6279 92.524 73.3719 91.572C73.1239 90.612 72.7679 89.728 72.3039 88.92H73.2999C73.7639 89.696 74.1199 90.564 74.3679 91.524C74.6239 92.476 74.7519 93.408 74.7519 94.32C74.7519 95.224 74.6239 96.156 74.3679 97.116C74.1199 98.076 73.7639 98.944 73.2999 99.72H72.3039ZM64.7264 115.72C64.2704 114.944 63.9144 114.076 63.6584 113.116C63.4024 112.148 63.2744 111.216 63.2744 110.32C63.2744 109.416 63.4024 108.484 63.6584 107.524C63.9144 106.564 64.2704 105.696 64.7264 104.92H65.7224C65.2584 105.728 64.8984 106.612 64.6424 107.572C64.3944 108.524 64.2704 109.44 64.2704 110.32C64.2704 111.184 64.3984 112.096 64.6544 113.056C64.9104 114.016 65.2664 114.904 65.7224 115.72H64.7264ZM68.1056 114.04H72.2576V115H66.7136V114.136L69.4496 110.98C70.0096 110.34 70.4096 109.808 70.6496 109.384C70.8896 108.96 71.0096 108.564 71.0096 108.196C71.0096 107.74 70.8616 107.372 70.5656 107.092C70.2696 106.812 69.8816 106.672 69.4016 106.672C69.0016 106.672 68.6416 106.792 68.3216 107.032C68.0096 107.272 67.7496 107.616 67.5416 108.064L66.6536 107.632C66.8936 107.016 67.2496 106.544 67.7216 106.216C68.2016 105.88 68.7696 105.712 69.4256 105.712C69.9456 105.712 70.4056 105.812 70.8056 106.012C71.2056 106.212 71.5176 106.496 71.7416 106.864C71.9656 107.232 72.0776 107.66 72.0776 108.148C72.0776 108.612 71.9456 109.104 71.6816 109.624C71.4176 110.144 70.9856 110.748 70.3856 111.436L68.1056 114.04ZM73.2824 115.72C73.7464 114.912 74.1024 114.028 74.3504 113.068C74.6064 112.108 74.7344 111.192 74.7344 110.32C74.7344 109.44 74.6064 108.524 74.3504 107.572C74.1024 106.612 73.7464 105.728 73.2824 104.92H74.2784C74.7424 105.696 75.0984 106.564 75.3464 107.524C75.6024 108.476 75.7304 109.408 75.7304 110.32C75.7304 111.224 75.6024 112.156 75.3464 113.116C75.0984 114.076 74.7424 114.944 74.2784 115.72H73.2824Z" fill="black"/>
<path d="M6.38994 178.236C7.02194 178.324 7.51794 178.556 7.87794 178.932C8.23794 179.308 8.41794 179.78 8.41794 180.348C8.41794 181.196 8.10594 181.852 7.48194 182.316C6.85794 182.772 5.96194 183 4.79394 183H2.03394V173.88H4.78194C5.80594 173.88 6.59394 174.084 7.14594 174.492C7.69794 174.892 7.97394 175.464 7.97394 176.208C7.97394 176.696 7.83394 177.112 7.55394 177.456C7.27394 177.792 6.88594 178.028 6.38994 178.164V178.236ZM3.06594 174.864V177.732H4.67394C5.37794 177.732 5.92194 177.6 6.30594 177.336C6.68994 177.072 6.88194 176.7 6.88194 176.22C6.88194 175.788 6.68594 175.456 6.29394 175.224C5.90994 174.984 5.36194 174.864 4.64994 174.864H3.06594ZM4.64994 182.016C5.51394 182.016 6.17794 181.868 6.64194 181.572C7.10594 181.276 7.33794 180.848 7.33794 180.288C7.33794 179.776 7.10594 179.388 6.64194 179.124C6.18594 178.852 5.52994 178.716 4.67394 178.716H3.06594V182.016H4.64994ZM14.4056 178.236C15.0376 178.324 15.5336 178.556 15.8936 178.932C16.2536 179.308 16.4336 179.78 16.4336 180.348C16.4336 181.196 16.1216 181.852 15.4976 182.316C14.8736 182.772 13.9776 183 12.8096 183H10.0496V173.88H12.7976C13.8216 173.88 14.6096 174.084 15.1616 174.492C15.7136 174.892 15.9896 175.464 15.9896 176.208C15.9896 176.696 15.8496 177.112 15.5696 177.456C15.2896 177.792 14.9016 178.028 14.4056 178.164V178.236ZM11.0816 174.864V177.732H12.6896C13.3936 177.732 13.9376 177.6 14.3216 177.336C14.7056 177.072 14.8976 176.7 14.8976 176.22C14.8976 175.788 14.7016 175.456 14.3096 175.224C13.9256 174.984 13.3776 174.864 12.6656 174.864H11.0816ZM12.6656 182.016C13.5296 182.016 14.1936 181.868 14.6576 181.572C15.1216 181.276 15.3536 180.848 15.3536 180.288C15.3536 179.776 15.1216 179.388 14.6576 179.124C14.2016 178.852 13.5456 178.716 12.6896 178.716H11.0816V182.016H12.6656ZM19.1212 182.04H23.2732V183H17.7292V182.136L20.4652 178.98C21.0252 178.34 21.4252 177.808 21.6652 177.384C21.9052 176.96 22.0252 176.564 22.0252 176.196C22.0252 175.74 21.8772 175.372 21.5812 175.092C21.2852 174.812 20.8972 174.672 20.4172 174.672C20.0172 174.672 19.6572 174.792 19.3372 175.032C19.0252 175.272 18.7652 175.616 18.5572 176.064L17.6692 175.632C17.9092 175.016 18.2652 174.544 18.7372 174.216C19.2172 173.88 19.7852 173.712 20.4412 173.712C20.9612 173.712 21.4212 173.812 21.8212 174.012C22.2212 174.212 22.5332 174.496 22.7572 174.864C22.9812 175.232 23.0932 175.66 23.0932 176.148C23.0932 176.612 22.9612 177.104 22.6972 177.624C22.4332 178.144 22.0012 178.748 21.4012 179.436L19.1212 182.04Z" fill="black"/>
<rect x="36.5" y="153.5" width="66" height="49" fill="#D9D9D9"/>
<rect x="36.5" y="153.5" width="66" height="49" stroke="black"/>
<path d="M64.5741 175.72C64.1181 174.944 63.7621 174.076 63.5061 173.116C63.2501 172.148 63.1221 171.216 63.1221 170.32C63.1221 169.416 63.2501 168.484 63.5061 167.524C63.7621 166.564 64.1181 165.696 64.5741 164.92H65.5701C65.1061 165.728 64.7461 166.612 64.4901 167.572C64.2421 168.524 64.1181 169.44 64.1181 170.32C64.1181 171.184 64.2461 172.096 64.5021 173.056C64.7581 174.016 65.1141 174.904 65.5701 175.72H64.5741ZM69.3572 169.624C69.4452 169.608 69.5812 169.6 69.7652 169.6C70.2132 169.6 70.6372 169.704 71.0372 169.912C71.4452 170.112 71.7772 170.416 72.0332 170.824C72.2892 171.232 72.4172 171.732 72.4172 172.324C72.4172 172.9 72.2932 173.404 72.0452 173.836C71.8052 174.26 71.4652 174.588 71.0252 174.82C70.5852 175.052 70.0732 175.168 69.4892 175.168C68.8412 175.168 68.2532 174.992 67.7252 174.64C67.1972 174.288 66.8172 173.796 66.5852 173.164L67.5332 172.828C67.9092 173.748 68.5732 174.208 69.5252 174.208C70.0772 174.208 70.5172 174.04 70.8452 173.704C71.1812 173.36 71.3492 172.9 71.3492 172.324C71.3492 171.748 71.1772 171.292 70.8332 170.956C70.4972 170.612 70.0372 170.44 69.4532 170.44C69.1092 170.44 68.7772 170.532 68.4572 170.716L67.8812 169.924L70.5452 166.84H66.8132V165.88H71.9132V166.756L69.3332 169.576L69.3572 169.624ZM73.4348 175.72C73.8988 174.912 74.2548 174.028 74.5028 173.068C74.7588 172.108 74.8868 171.192 74.8868 170.32C74.8868 169.44 74.7588 168.524 74.5028 167.572C74.2548 166.612 73.8988 165.728 73.4348 164.92H74.4308C74.8948 165.696 75.2508 166.564 75.4988 167.524C75.7548 168.476 75.8828 169.408 75.8828 170.32C75.8828 171.224 75.7548 172.156 75.4988 173.116C75.2508 174.076 74.8948 174.944 74.4308 175.72H73.4348ZM64.58 191.72C64.124 190.944 63.768 190.076 63.512 189.116C63.256 188.148 63.128 187.216 63.128 186.32C63.128 185.416 63.256 184.484 63.512 183.524C63.768 182.564 64.124 181.696 64.58 180.92H65.576C65.112 181.728 64.752 182.612 64.496 183.572C64.248 184.524 64.124 185.44 64.124 186.32C64.124 187.184 64.252 188.096 64.508 189.056C64.764 190.016 65.12 190.904 65.576 191.72H64.58ZM71.4871 188H72.6151V188.948H71.4871V191H70.4431V188.948H66.2911V188.156L69.9871 181.88H71.4871V188ZM70.4431 183.032L67.5271 188H70.4431V183.032ZM73.4289 191.72C73.8929 190.912 74.2489 190.028 74.4969 189.068C74.7529 188.108 74.8809 187.192 74.8809 186.32C74.8809 185.44 74.7529 184.524 74.4969 183.572C74.2489 182.612 73.8929 181.728 73.4289 180.92H74.4249C74.8889 181.696 75.2449 182.564 75.4929 183.524C75.7489 184.476 75.8769 185.408 75.8769 186.32C75.8769 187.224 75.7489 188.156 75.4929 189.116C75.2449 190.076 74.8889 190.944 74.4249 191.72H73.4289Z" fill="black"/>
<path d="M5.73759 254.236C6.36959 254.324 6.86559 254.556 7.22559 254.932C7.58559 255.308 7.76559 255.78 7.76559 256.348C7.76559 257.196 7.45359 257.852 6.82959 258.316C6.20559 258.772 5.30959 259 4.14159 259H1.38159V249.88H4.12959C5.15359 249.88 5.94159 250.084 6.49359 250.492C7.04559 250.892 7.32159 251.464 7.32159 252.208C7.32159 252.696 7.18159 253.112 6.90159 253.456C6.62159 253.792 6.23359 254.028 5.73759 254.164V254.236ZM2.41359 250.864V253.732H4.02159C4.72559 253.732 5.26959 253.6 5.65359 253.336C6.03759 253.072 6.22959 252.7 6.22959 252.22C6.22959 251.788 6.03359 251.456 5.64159 251.224C5.25759 250.984 4.70959 250.864 3.99759 250.864H2.41359ZM3.99759 258.016C4.86159 258.016 5.52559 257.868 5.98959 257.572C6.45359 257.276 6.68559 256.848 6.68559 256.288C6.68559 255.776 6.45359 255.388 5.98959 255.124C5.53359 254.852 4.87759 254.716 4.02159 254.716H2.41359V258.016H3.99759ZM13.7532 254.236C14.3852 254.324 14.8812 254.556 15.2412 254.932C15.6012 255.308 15.7812 255.78 15.7812 256.348C15.7812 257.196 15.4692 257.852 14.8452 258.316C14.2212 258.772 13.3252 259 12.1572 259H9.39722V249.88H12.1452C13.1692 249.88 13.9572 250.084 14.5092 250.492C15.0612 250.892 15.3372 251.464 15.3372 252.208C15.3372 252.696 15.1972 253.112 14.9172 253.456C14.6372 253.792 14.2492 254.028 13.7532 254.164V254.236ZM10.4292 250.864V253.732H12.0372C12.7412 253.732 13.2852 253.6 13.6692 253.336C14.0532 253.072 14.2452 252.7 14.2452 252.22C14.2452 251.788 14.0492 251.456 13.6572 251.224C13.2732 250.984 12.7252 250.864 12.0132 250.864H10.4292ZM12.0132 258.016C12.8772 258.016 13.5412 257.868 14.0052 257.572C14.4692 257.276 14.7012 256.848 14.7012 256.288C14.7012 255.776 14.4692 255.388 14.0052 255.124C13.5492 254.852 12.8932 254.716 12.0372 254.716H10.4292V258.016H12.0132ZM19.8728 253.624C19.9608 253.608 20.0968 253.6 20.2808 253.6C20.7288 253.6 21.1528 253.704 21.5528 253.912C21.9608 254.112 22.2928 254.416 22.5488 254.824C22.8048 255.232 22.9328 255.732 22.9328 256.324C22.9328 256.9 22.8088 257.404 22.5608 257.836C22.3208 258.26 21.9808 258.588 21.5408 258.82C21.1008 259.052 20.5888 259.168 20.0048 259.168C19.3568 259.168 18.7688 258.992 18.2408 258.64C17.7128 258.288 17.3328 257.796 17.1008 257.164L18.0488 256.828C18.4248 257.748 19.0888 258.208 20.0408 258.208C20.5928 258.208 21.0328 258.04 21.3608 257.704C21.6968 257.36 21.8648 256.9 21.8648 256.324C21.8648 255.748 21.6928 255.292 21.3488 254.956C21.0128 254.612 20.5528 254.44 19.9688 254.44C19.6248 254.44 19.2928 254.532 18.9728 254.716L18.3968 253.924L21.0608 250.84H17.3288V249.88H22.4288V250.756L19.8488 253.576L19.8728 253.624Z" fill="black"/>
<rect x="36.5" y="229.5" width="66" height="49" fill="#D9D9D9"/>
<rect x="36.5" y="229.5" width="66" height="49" stroke="black"/>
<path d="M64.5038 251.72C64.0478 250.944 63.6918 250.076 63.4358 249.116C63.1798 248.148 63.0518 247.216 63.0518 246.32C63.0518 245.416 63.1798 244.484 63.4358 243.524C63.6918 242.564 64.0478 241.696 64.5038 240.92H65.4998C65.0358 241.728 64.6758 242.612 64.4198 243.572C64.1718 244.524 64.0478 245.44 64.0478 246.32C64.0478 247.184 64.1758 248.096 64.4318 249.056C64.6878 250.016 65.0438 250.904 65.4998 251.72H64.5038ZM67.4629 248.828C67.6309 249.26 67.8789 249.6 68.2069 249.848C68.5429 250.088 68.9629 250.208 69.4669 250.208C70.0349 250.208 70.4829 250.036 70.8109 249.692C71.1469 249.34 71.3149 248.868 71.3149 248.276C71.3149 247.684 71.1429 247.22 70.7989 246.884C70.4549 246.548 69.9949 246.38 69.4189 246.38C68.7629 246.38 68.2109 246.652 67.7629 247.196L66.8869 246.956L67.2469 241.88H71.8669V242.84H68.1949L67.9549 245.936L67.9909 245.948C68.1909 245.764 68.4309 245.628 68.7109 245.54C68.9989 245.452 69.3029 245.408 69.6229 245.408C70.1589 245.408 70.6349 245.524 71.0509 245.756C71.4749 245.988 71.8029 246.32 72.0349 246.752C72.2669 247.176 72.3829 247.668 72.3829 248.228C72.3829 248.812 72.2589 249.328 72.0109 249.776C71.7709 250.224 71.4309 250.568 70.9909 250.808C70.5509 251.048 70.0469 251.168 69.4789 251.168C68.7429 251.168 68.1189 250.988 67.6069 250.628C67.0949 250.268 66.7309 249.784 66.5149 249.176L67.4629 248.828ZM73.5051 251.72C73.9691 250.912 74.3251 250.028 74.5731 249.068C74.8291 248.108 74.9571 247.192 74.9571 246.32C74.9571 245.44 74.8291 244.524 74.5731 243.572C74.3251 242.612 73.9691 241.728 73.5051 240.92H74.5011C74.9651 241.696 75.3211 242.564 75.5691 243.524C75.8251 244.476 75.9531 245.408 75.9531 246.32C75.9531 247.224 75.8251 248.156 75.5691 249.116C75.3211 250.076 74.9651 250.944 74.5011 251.72H73.5051ZM64.4862 267.72C64.0302 266.944 63.6742 266.076 63.4182 265.116C63.1622 264.148 63.0342 263.216 63.0342 262.32C63.0342 261.416 63.1622 260.484 63.4182 259.524C63.6742 258.564 64.0302 257.696 64.4862 256.92H65.4822C65.0182 257.728 64.6582 258.612 64.4022 259.572C64.1542 260.524 64.0302 261.44 64.0302 262.32C64.0302 263.184 64.1582 264.096 64.4142 265.056C64.6702 266.016 65.0262 266.904 65.4822 267.72H64.4862ZM69.4973 267.168C68.9213 267.168 68.4053 267.044 67.9493 266.796C67.5013 266.54 67.1493 266.188 66.8933 265.74C66.6453 265.284 66.5213 264.768 66.5213 264.192C66.5213 263.664 66.6053 263.152 66.7733 262.656C66.9413 262.152 67.2613 261.492 67.7333 260.676L69.3533 257.88H70.5653L68.3093 261.672L68.3453 261.708C68.4893 261.58 68.6893 261.476 68.9453 261.396C69.2013 261.316 69.4733 261.276 69.7613 261.276C70.2893 261.276 70.7613 261.4 71.1773 261.648C71.5933 261.896 71.9173 262.244 72.1493 262.692C72.3893 263.132 72.5093 263.632 72.5093 264.192C72.5093 264.768 72.3813 265.284 72.1253 265.74C71.8693 266.188 71.5133 266.54 71.0573 266.796C70.6013 267.044 70.0813 267.168 69.4973 267.168ZM69.5333 266.208C70.0933 266.208 70.5493 266.02 70.9013 265.644C71.2613 265.268 71.4413 264.784 71.4413 264.192C71.4413 263.616 71.2653 263.144 70.9133 262.776C70.5693 262.408 70.1253 262.224 69.5813 262.224C68.9973 262.224 68.5173 262.408 68.1413 262.776C67.7733 263.136 67.5893 263.608 67.5893 264.192C67.5893 264.784 67.7693 265.268 68.1293 265.644C68.4973 266.02 68.9653 266.208 69.5333 266.208ZM73.5227 267.72C73.9867 266.912 74.3427 266.028 74.5907 265.068C74.8467 264.108 74.9747 263.192 74.9747 262.32C74.9747 261.44 74.8467 260.524 74.5907 259.572C74.3427 258.612 73.9867 257.728 73.5227 256.92H74.5187C74.9827 257.696 75.3387 258.564 75.5867 259.524C75.8427 260.476 75.9707 261.408 75.9707 262.32C75.9707 263.224 75.8427 264.156 75.5867 265.116C75.3387 266.076 74.9827 266.944 74.5187 267.72H73.5227Z" fill="black"/>
<path d="M186.509 253.236C187.141 253.324 187.637 253.556 187.997 253.932C188.357 254.308 188.537 254.78 188.537 255.348C188.537 256.196 188.225 256.852 187.601 257.316C186.977 257.772 186.081 258 184.913 258H182.153V248.88H184.901C185.925 248.88 186.713 249.084 187.265 249.492C187.817 249.892 188.093 250.464 188.093 251.208C188.093 251.696 187.953 252.112 187.673 252.456C187.393 252.792 187.005 253.028 186.509 253.164V253.236ZM183.185 249.864V252.732H184.793C185.497 252.732 186.041 252.6 186.425 252.336C186.809 252.072 187.001 251.7 187.001 251.22C187.001 250.788 186.805 250.456 186.413 250.224C186.029 249.984 185.481 249.864 184.769 249.864H183.185ZM184.769 257.016C185.633 257.016 186.297 256.868 186.761 256.572C187.225 256.276 187.457 255.848 187.457 255.288C187.457 254.776 187.225 254.388 186.761 254.124C186.305 253.852 185.649 253.716 184.793 253.716H183.185V257.016H184.769ZM194.525 253.236C195.157 253.324 195.653 253.556 196.013 253.932C196.373 254.308 196.553 254.78 196.553 255.348C196.553 256.196 196.241 256.852 195.617 257.316C194.993 257.772 194.097 258 192.929 258H190.169V248.88H192.917C193.941 248.88 194.729 249.084 195.281 249.492C195.833 249.892 196.109 250.464 196.109 251.208C196.109 251.696 195.969 252.112 195.689 252.456C195.409 252.792 195.021 253.028 194.525 253.164V253.236ZM191.201 249.864V252.732H192.809C193.513 252.732 194.057 252.6 194.441 252.336C194.825 252.072 195.017 251.7 195.017 251.22C195.017 250.788 194.821 250.456 194.429 250.224C194.045 249.984 193.497 249.864 192.785 249.864H191.201ZM192.785 257.016C193.649 257.016 194.313 256.868 194.777 256.572C195.241 256.276 195.473 255.848 195.473 255.288C195.473 254.776 195.241 254.388 194.777 254.124C194.321 253.852 193.665 253.716 192.809 253.716H191.201V257.016H192.785ZM201.016 258.168C200.44 258.168 199.92 258.056 199.456 257.832C199 257.608 198.64 257.296 198.376 256.896C198.112 256.496 197.98 256.044 197.98 255.54C197.98 255.004 198.148 254.512 198.484 254.064C198.82 253.616 199.228 253.308 199.708 253.14V253.104C199.324 252.976 198.996 252.724 198.724 252.348C198.452 251.972 198.316 251.564 198.316 251.124C198.316 250.66 198.432 250.244 198.664 249.876C198.896 249.508 199.216 249.224 199.624 249.024C200.04 248.816 200.504 248.712 201.016 248.712C201.528 248.712 201.988 248.816 202.396 249.024C202.812 249.224 203.136 249.508 203.368 249.876C203.6 250.244 203.716 250.66 203.716 251.124C203.716 251.58 203.58 251.996 203.308 252.372C203.036 252.748 202.708 252.992 202.324 253.104V253.14C202.812 253.316 203.22 253.628 203.548 254.076C203.884 254.524 204.052 255.012 204.052 255.54C204.052 256.044 203.92 256.496 203.656 256.896C203.4 257.296 203.04 257.608 202.576 257.832C202.112 258.056 201.592 258.168 201.016 258.168ZM201.016 252.672C201.496 252.672 201.892 252.536 202.204 252.264C202.516 251.984 202.672 251.628 202.672 251.196C202.672 250.748 202.516 250.384 202.204 250.104C201.892 249.816 201.496 249.672 201.016 249.672C200.536 249.672 200.14 249.816 199.828 250.104C199.516 250.384 199.36 250.748 199.36 251.196C199.36 251.628 199.516 251.984 199.828 252.264C200.148 252.536 200.544 252.672 201.016 252.672ZM201.016 257.208C201.584 257.208 202.052 257.044 202.42 256.716C202.796 256.38 202.984 255.948 202.984 255.42C202.984 254.892 202.796 254.464 202.42 254.136C202.052 253.8 201.584 253.632 201.016 253.632C200.456 253.632 199.988 253.8 199.612 254.136C199.236 254.464 199.048 254.892 199.048 255.42C199.048 255.948 199.232 256.38 199.6 256.716C199.976 257.044 200.448 257.208 201.016 257.208Z" fill="black"/>
<rect x="217.5" y="228.5" width="66" height="49" fill="#D9D9D9"/>
<rect x="217.5" y="228.5" width="66" height="49" stroke="black"/>
<path d="M243.084 250.72C242.628 249.944 242.272 249.076 242.016 248.116C241.76 247.148 241.632 246.216 241.632 245.32C241.632 244.416 241.76 243.484 242.016 242.524C242.272 241.564 242.628 240.696 243.084 239.92H244.08C243.616 240.728 243.256 241.612 243 242.572C242.752 243.524 242.628 244.44 242.628 245.32C242.628 246.184 242.756 247.096 243.012 248.056C243.268 249.016 243.624 249.904 244.08 250.72H243.084ZM247.879 250H246.835V242.092L245.059 243.028V241.936L247.099 240.88H247.879V250ZM250.883 247.828C251.051 248.26 251.299 248.6 251.627 248.848C251.963 249.088 252.383 249.208 252.887 249.208C253.455 249.208 253.903 249.036 254.231 248.692C254.567 248.34 254.735 247.868 254.735 247.276C254.735 246.684 254.563 246.22 254.219 245.884C253.875 245.548 253.415 245.38 252.839 245.38C252.183 245.38 251.631 245.652 251.183 246.196L250.307 245.956L250.667 240.88H255.287V241.84H251.615L251.375 244.936L251.411 244.948C251.611 244.764 251.851 244.628 252.131 244.54C252.419 244.452 252.723 244.408 253.043 244.408C253.579 244.408 254.055 244.524 254.471 244.756C254.895 244.988 255.223 245.32 255.455 245.752C255.687 246.176 255.803 246.668 255.803 247.228C255.803 247.812 255.679 248.328 255.431 248.776C255.191 249.224 254.851 249.568 254.411 249.808C253.971 250.048 253.467 250.168 252.899 250.168C252.163 250.168 251.539 249.988 251.027 249.628C250.515 249.268 250.151 248.784 249.935 248.176L250.883 247.828ZM256.925 250.72C257.389 249.912 257.745 249.028 257.993 248.068C258.249 247.108 258.377 246.192 258.377 245.32C258.377 244.44 258.249 243.524 257.993 242.572C257.745 241.612 257.389 240.728 256.925 239.92H257.921C258.385 240.696 258.741 241.564 258.989 242.524C259.245 243.476 259.373 244.408 259.373 245.32C259.373 246.224 259.245 247.156 258.989 248.116C258.741 249.076 258.385 249.944 257.921 250.72H256.925ZM243.066 266.72C242.61 265.944 242.254 265.076 241.998 264.116C241.742 263.148 241.614 262.216 241.614 261.32C241.614 260.416 241.742 259.484 241.998 258.524C242.254 257.564 242.61 256.696 243.066 255.92H244.062C243.598 256.728 243.238 257.612 242.982 258.572C242.734 259.524 242.61 260.44 242.61 261.32C242.61 262.184 242.738 263.096 242.994 264.056C243.25 265.016 243.606 265.904 244.062 266.72H243.066ZM247.861 266H246.817V258.092L245.041 259.028V257.936L247.081 256.88H247.861V266ZM252.917 266.168C252.341 266.168 251.825 266.044 251.369 265.796C250.921 265.54 250.569 265.188 250.313 264.74C250.065 264.284 249.941 263.768 249.941 263.192C249.941 262.664 250.025 262.152 250.193 261.656C250.361 261.152 250.681 260.492 251.153 259.676L252.773 256.88H253.985L251.729 260.672L251.765 260.708C251.909 260.58 252.109 260.476 252.365 260.396C252.621 260.316 252.893 260.276 253.181 260.276C253.709 260.276 254.181 260.4 254.597 260.648C255.013 260.896 255.337 261.244 255.569 261.692C255.809 262.132 255.929 262.632 255.929 263.192C255.929 263.768 255.801 264.284 255.545 264.74C255.289 265.188 254.933 265.54 254.477 265.796C254.021 266.044 253.501 266.168 252.917 266.168ZM252.953 265.208C253.513 265.208 253.969 265.02 254.321 264.644C254.681 264.268 254.861 263.784 254.861 263.192C254.861 262.616 254.685 262.144 254.333 261.776C253.989 261.408 253.545 261.224 253.001 261.224C252.417 261.224 251.937 261.408 251.561 261.776C251.193 262.136 251.009 262.608 251.009 263.192C251.009 263.784 251.189 264.268 251.549 264.644C251.917 265.02 252.385 265.208 252.953 265.208ZM256.943 266.72C257.407 265.912 257.763 265.028 258.011 264.068C258.267 263.108 258.395 262.192 258.395 261.32C258.395 260.44 258.267 259.524 258.011 258.572C257.763 257.612 257.407 256.728 256.943 255.92H257.939C258.403 256.696 258.759 257.564 259.007 258.524C259.263 259.476 259.391 260.408 259.391 261.32C259.391 262.224 259.263 263.156 259.007 264.116C258.759 265.076 258.403 265.944 257.939 266.72H256.943Z" fill="black"/>
<path d="M186.691 329.236C187.323 329.324 187.819 329.556 188.179 329.932C188.539 330.308 188.719 330.78 188.719 331.348C188.719 332.196 188.407 332.852 187.783 333.316C187.159 333.772 186.263 334 185.095 334H182.335V324.88H185.083C186.107 324.88 186.895 325.084 187.447 325.492C187.999 325.892 188.275 326.464 188.275 327.208C188.275 327.696 188.135 328.112 187.855 328.456C187.575 328.792 187.187 329.028 186.691 329.164V329.236ZM183.367 325.864V328.732H184.975C185.679 328.732 186.223 328.6 186.607 328.336C186.991 328.072 187.183 327.7 187.183 327.22C187.183 326.788 186.987 326.456 186.595 326.224C186.211 325.984 185.663 325.864 184.951 325.864H183.367ZM184.951 333.016C185.815 333.016 186.479 332.868 186.943 332.572C187.407 332.276 187.639 331.848 187.639 331.288C187.639 330.776 187.407 330.388 186.943 330.124C186.487 329.852 185.831 329.716 184.975 329.716H183.367V333.016H184.951ZM194.706 329.236C195.338 329.324 195.834 329.556 196.194 329.932C196.554 330.308 196.734 330.78 196.734 331.348C196.734 332.196 196.422 332.852 195.798 333.316C195.174 333.772 194.278 334 193.11 334H190.35V324.88H193.098C194.122 324.88 194.91 325.084 195.462 325.492C196.014 325.892 196.29 326.464 196.29 327.208C196.29 327.696 196.15 328.112 195.87 328.456C195.59 328.792 195.202 329.028 194.706 329.164V329.236ZM191.382 325.864V328.732H192.99C193.694 328.732 194.238 328.6 194.622 328.336C195.006 328.072 195.198 327.7 195.198 327.22C195.198 326.788 195.002 326.456 194.61 326.224C194.226 325.984 193.678 325.864 192.966 325.864H191.382ZM192.966 333.016C193.83 333.016 194.494 332.868 194.958 332.572C195.422 332.276 195.654 331.848 195.654 331.288C195.654 330.776 195.422 330.388 194.958 330.124C194.502 329.852 193.846 329.716 192.99 329.716H191.382V333.016H192.966ZM199.914 334L202.17 330.196L202.134 330.172C201.99 330.3 201.79 330.404 201.534 330.484C201.278 330.564 201.002 330.604 200.706 330.604C200.178 330.604 199.706 330.48 199.29 330.232C198.874 329.984 198.55 329.64 198.318 329.2C198.086 328.752 197.97 328.244 197.97 327.676C197.97 327.1 198.098 326.588 198.354 326.14C198.61 325.692 198.966 325.344 199.422 325.096C199.878 324.84 200.398 324.712 200.982 324.712C201.558 324.712 202.07 324.84 202.518 325.096C202.966 325.344 203.314 325.692 203.562 326.14C203.818 326.588 203.946 327.1 203.946 327.676C203.946 328.212 203.862 328.732 203.694 329.236C203.534 329.732 203.218 330.388 202.746 331.204L201.126 334H199.914ZM200.898 329.644C201.474 329.644 201.946 329.464 202.314 329.104C202.69 328.736 202.878 328.26 202.878 327.676C202.878 327.084 202.698 326.604 202.338 326.236C201.978 325.86 201.514 325.672 200.946 325.672C200.386 325.672 199.926 325.86 199.566 326.236C199.214 326.612 199.038 327.092 199.038 327.676C199.038 328.26 199.21 328.736 199.554 329.104C199.906 329.464 200.354 329.644 200.898 329.644Z" fill="black"/>
<rect x="217.5" y="304.5" width="66" height="49" fill="#D9D9D9"/>
<rect x="217.5" y="304.5" width="66" height="49" stroke="black"/>
<path d="M243.541 326.72C243.085 325.944 242.729 325.076 242.473 324.116C242.217 323.148 242.089 322.216 242.089 321.32C242.089 320.416 242.217 319.484 242.473 318.524C242.729 317.564 243.085 316.696 243.541 315.92H244.537C244.073 316.728 243.713 317.612 243.457 318.572C243.209 319.524 243.085 320.44 243.085 321.32C243.085 322.184 243.213 323.096 243.469 324.056C243.725 325.016 244.081 325.904 244.537 326.72H243.541ZM248.336 326H247.292V318.092L245.516 319.028V317.936L247.556 316.88H248.336V326ZM252.036 326H250.896L254.34 317.84H250.14V316.88H255.528V317.648L252.036 326ZM256.468 326.72C256.932 325.912 257.288 325.028 257.536 324.068C257.792 323.108 257.92 322.192 257.92 321.32C257.92 320.44 257.792 319.524 257.536 318.572C257.288 317.612 256.932 316.728 256.468 315.92H257.464C257.928 316.696 258.284 317.564 258.532 318.524C258.788 319.476 258.916 320.408 258.916 321.32C258.916 322.224 258.788 323.156 258.532 324.116C258.284 325.076 257.928 325.944 257.464 326.72H256.468ZM242.926 342.72C242.47 341.944 242.114 341.076 241.858 340.116C241.602 339.148 241.474 338.216 241.474 337.32C241.474 336.416 241.602 335.484 241.858 334.524C242.114 333.564 242.47 332.696 242.926 331.92H243.922C243.458 332.728 243.098 333.612 242.842 334.572C242.594 335.524 242.47 336.44 242.47 337.32C242.47 338.184 242.598 339.096 242.854 340.056C243.11 341.016 243.466 341.904 243.922 342.72H242.926ZM247.721 342H246.677V334.092L244.901 335.028V333.936L246.941 332.88H247.721V342ZM252.921 342.168C252.345 342.168 251.825 342.056 251.361 341.832C250.905 341.608 250.545 341.296 250.281 340.896C250.017 340.496 249.885 340.044 249.885 339.54C249.885 339.004 250.053 338.512 250.389 338.064C250.725 337.616 251.133 337.308 251.613 337.14V337.104C251.229 336.976 250.901 336.724 250.629 336.348C250.357 335.972 250.221 335.564 250.221 335.124C250.221 334.66 250.337 334.244 250.569 333.876C250.801 333.508 251.121 333.224 251.529 333.024C251.945 332.816 252.409 332.712 252.921 332.712C253.433 332.712 253.893 332.816 254.301 333.024C254.717 333.224 255.041 333.508 255.273 333.876C255.505 334.244 255.621 334.66 255.621 335.124C255.621 335.58 255.485 335.996 255.213 336.372C254.941 336.748 254.613 336.992 254.229 337.104V337.14C254.717 337.316 255.125 337.628 255.453 338.076C255.789 338.524 255.957 339.012 255.957 339.54C255.957 340.044 255.825 340.496 255.561 340.896C255.305 341.296 254.945 341.608 254.481 341.832C254.017 342.056 253.497 342.168 252.921 342.168ZM252.921 336.672C253.401 336.672 253.797 336.536 254.109 336.264C254.421 335.984 254.577 335.628 254.577 335.196C254.577 334.748 254.421 334.384 254.109 334.104C253.797 333.816 253.401 333.672 252.921 333.672C252.441 333.672 252.045 333.816 251.733 334.104C251.421 334.384 251.265 334.748 251.265 335.196C251.265 335.628 251.421 335.984 251.733 336.264C252.053 336.536 252.449 336.672 252.921 336.672ZM252.921 341.208C253.489 341.208 253.957 341.044 254.325 340.716C254.701 340.38 254.889 339.948 254.889 339.42C254.889 338.892 254.701 338.464 254.325 338.136C253.957 337.8 253.489 337.632 252.921 337.632C252.361 337.632 251.893 337.8 251.517 338.136C251.141 338.464 250.953 338.892 250.953 339.42C250.953 339.948 251.137 340.38 251.505 340.716C251.881 341.044 252.353 341.208 252.921 341.208ZM257.083 342.72C257.547 341.912 257.903 341.028 258.151 340.068C258.407 339.108 258.535 338.192 258.535 337.32C258.535 336.44 258.407 335.524 258.151 334.572C257.903 333.612 257.547 332.728 257.083 331.92H258.079C258.543 332.696 258.899 333.564 259.147 334.524C259.403 335.476 259.531 336.408 259.531 337.32C259.531 338.224 259.403 339.156 259.147 340.116C258.899 341.076 258.543 341.944 258.079 342.72H257.083Z" fill="black"/>
<path d="M181.566 405.236C182.198 405.324 182.694 405.556 183.054 405.932C183.414 406.308 183.594 406.78 183.594 407.348C183.594 408.196 183.282 408.852 182.658 409.316C182.034 409.772 181.138 410 179.97 410H177.21V400.88H179.958C180.982 400.88 181.77 401.084 182.322 401.492C182.874 401.892 183.15 402.464 183.15 403.208C183.15 403.696 183.01 404.112 182.73 404.456C182.45 404.792 182.062 405.028 181.566 405.164V405.236ZM178.242 401.864V404.732H179.85C180.554 404.732 181.098 404.6 181.482 404.336C181.866 404.072 182.058 403.7 182.058 403.22C182.058 402.788 181.862 402.456 181.47 402.224C181.086 401.984 180.538 401.864 179.826 401.864H178.242ZM179.826 409.016C180.69 409.016 181.354 408.868 181.818 408.572C182.282 408.276 182.514 407.848 182.514 407.288C182.514 406.776 182.282 406.388 181.818 406.124C181.362 405.852 180.706 405.716 179.85 405.716H178.242V409.016H179.826ZM189.581 405.236C190.213 405.324 190.709 405.556 191.069 405.932C191.429 406.308 191.609 406.78 191.609 407.348C191.609 408.196 191.297 408.852 190.673 409.316C190.049 409.772 189.153 410 187.985 410H185.225V400.88H187.973C188.997 400.88 189.785 401.084 190.337 401.492C190.889 401.892 191.165 402.464 191.165 403.208C191.165 403.696 191.025 404.112 190.745 404.456C190.465 404.792 190.077 405.028 189.581 405.164V405.236ZM186.257 401.864V404.732H187.865C188.569 404.732 189.113 404.6 189.497 404.336C189.881 404.072 190.073 403.7 190.073 403.22C190.073 402.788 189.877 402.456 189.485 402.224C189.101 401.984 188.553 401.864 187.841 401.864H186.257ZM187.841 409.016C188.705 409.016 189.369 408.868 189.833 408.572C190.297 408.276 190.529 407.848 190.529 407.288C190.529 406.776 190.297 406.388 189.833 406.124C189.377 405.852 188.721 405.716 187.865 405.716H186.257V409.016H187.841ZM195.713 410H194.669V402.092L192.893 403.028V401.936L194.933 400.88H195.713V410ZM200.937 410.168C199.969 410.168 199.217 409.76 198.681 408.944C198.145 408.12 197.877 406.952 197.877 405.44C197.877 403.928 198.145 402.764 198.681 401.948C199.217 401.124 199.969 400.712 200.937 400.712C201.913 400.712 202.665 401.124 203.193 401.948C203.729 402.764 203.997 403.928 203.997 405.44C203.997 406.952 203.729 408.12 203.193 408.944C202.665 409.76 201.913 410.168 200.937 410.168ZM200.937 409.208C201.569 409.208 202.057 408.884 202.401 408.236C202.753 407.58 202.929 406.648 202.929 405.44C202.929 404.232 202.753 403.304 202.401 402.656C202.057 402 201.569 401.672 200.937 401.672C200.305 401.672 199.813 402 199.461 402.656C199.117 403.304 198.945 404.232 198.945 405.44C198.945 406.648 199.117 407.58 199.461 408.236C199.813 408.884 200.305 409.208 200.937 409.208Z" fill="black"/>
<rect x="217.5" y="380.5" width="66" height="49" fill="#D9D9D9"/>
<rect x="217.5" y="380.5" width="66" height="49" stroke="black"/>
<path d="M243.107 410.72C242.651 409.944 242.295 409.076 242.039 408.116C241.783 407.148 241.655 406.216 241.655 405.32C241.655 404.416 241.783 403.484 242.039 402.524C242.295 401.564 242.651 400.696 243.107 399.92H244.103C243.639 400.728 243.279 401.612 243.023 402.572C242.775 403.524 242.651 404.44 242.651 405.32C242.651 406.184 242.779 407.096 243.035 408.056C243.291 409.016 243.647 409.904 244.103 410.72H243.107ZM247.902 410H246.858V402.092L245.082 403.028V401.936L247.122 400.88H247.902V410ZM251.818 410L254.074 406.196L254.038 406.172C253.894 406.3 253.694 406.404 253.438 406.484C253.182 406.564 252.906 406.604 252.61 406.604C252.082 406.604 251.61 406.48 251.194 406.232C250.778 405.984 250.454 405.64 250.222 405.2C249.99 404.752 249.874 404.244 249.874 403.676C249.874 403.1 250.002 402.588 250.258 402.14C250.514 401.692 250.87 401.344 251.326 401.096C251.782 400.84 252.302 400.712 252.886 400.712C253.462 400.712 253.974 400.84 254.422 401.096C254.87 401.344 255.218 401.692 255.466 402.14C255.722 402.588 255.85 403.1 255.85 403.676C255.85 404.212 255.766 404.732 255.598 405.236C255.438 405.732 255.122 406.388 254.65 407.204L253.03 410H251.818ZM252.802 405.644C253.378 405.644 253.85 405.464 254.218 405.104C254.594 404.736 254.782 404.26 254.782 403.676C254.782 403.084 254.602 402.604 254.242 402.236C253.882 401.86 253.418 401.672 252.85 401.672C252.29 401.672 251.83 401.86 251.47 402.236C251.118 402.612 250.942 403.092 250.942 403.676C250.942 404.26 251.114 404.736 251.458 405.104C251.81 405.464 252.258 405.644 252.802 405.644ZM256.902 410.72C257.366 409.912 257.722 409.028 257.97 408.068C258.226 407.108 258.354 406.192 258.354 405.32C258.354 404.44 258.226 403.524 257.97 402.572C257.722 401.612 257.366 400.728 256.902 399.92H257.898C258.362 400.696 258.718 401.564 258.966 402.524C259.222 403.476 259.35 404.408 259.35 405.32C259.35 406.224 259.222 407.156 258.966 408.116C258.718 409.076 258.362 409.944 257.898 410.72H256.902Z" fill="black"/>
<path d="M5.74345 330.236C6.37545 330.324 6.87145 330.556 7.23145 330.932C7.59145 331.308 7.77145 331.78 7.77145 332.348C7.77145 333.196 7.45945 333.852 6.83545 334.316C6.21145 334.772 5.31545 335 4.14745 335H1.38745V325.88H4.13545C5.15945 325.88 5.94745 326.084 6.49945 326.492C7.05145 326.892 7.32745 327.464 7.32745 328.208C7.32745 328.696 7.18745 329.112 6.90745 329.456C6.62745 329.792 6.23945 330.028 5.74345 330.164V330.236ZM2.41945 326.864V329.732H4.02745C4.73145 329.732 5.27545 329.6 5.65945 329.336C6.04345 329.072 6.23545 328.7 6.23545 328.22C6.23545 327.788 6.03945 327.456 5.64745 327.224C5.26345 326.984 4.71545 326.864 4.00345 326.864H2.41945ZM4.00345 334.016C4.86745 334.016 5.53145 333.868 5.99545 333.572C6.45945 333.276 6.69145 332.848 6.69145 332.288C6.69145 331.776 6.45945 331.388 5.99545 331.124C5.53945 330.852 4.88345 330.716 4.02745 330.716H2.41945V334.016H4.00345ZM13.7591 330.236C14.3911 330.324 14.8871 330.556 15.2471 330.932C15.6071 331.308 15.7871 331.78 15.7871 332.348C15.7871 333.196 15.4751 333.852 14.8511 334.316C14.2271 334.772 13.3311 335 12.1631 335H9.40308V325.88H12.1511C13.1751 325.88 13.9631 326.084 14.5151 326.492C15.0671 326.892 15.3431 327.464 15.3431 328.208C15.3431 328.696 15.2031 329.112 14.9231 329.456C14.6431 329.792 14.2551 330.028 13.7591 330.164V330.236ZM10.4351 326.864V329.732H12.0431C12.7471 329.732 13.2911 329.6 13.6751 329.336C14.0591 329.072 14.2511 328.7 14.2511 328.22C14.2511 327.788 14.0551 327.456 13.6631 327.224C13.2791 326.984 12.7311 326.864 12.0191 326.864H10.4351ZM12.0191 334.016C12.8831 334.016 13.5471 333.868 14.0111 333.572C14.4751 333.276 14.7071 332.848 14.7071 332.288C14.7071 331.776 14.4751 331.388 14.0111 331.124C13.5551 330.852 12.8991 330.716 12.0431 330.716H10.4351V334.016H12.0191ZM22.0027 332H23.1307V332.948H22.0027V335H20.9587V332.948H16.8067V332.156L20.5027 325.88H22.0027V332ZM20.9587 327.032L18.0427 332H20.9587V327.032Z" fill="black"/>
<rect x="36.5" y="305.5" width="66" height="49" fill="#D9D9D9"/>
<rect x="36.5" y="305.5" width="66" height="49" stroke="black"/>
<path d="M64.9608 335.72C64.5048 334.944 64.1488 334.076 63.8928 333.116C63.6368 332.148 63.5088 331.216 63.5088 330.32C63.5088 329.416 63.6368 328.484 63.8928 327.524C64.1488 326.564 64.5048 325.696 64.9608 324.92H65.9568C65.4928 325.728 65.1328 326.612 64.8768 327.572C64.6288 328.524 64.5048 329.44 64.5048 330.32C64.5048 331.184 64.6328 332.096 64.8888 333.056C65.1448 334.016 65.5008 334.904 65.9568 335.72H64.9608ZM68.6159 335H67.4759L70.9199 326.84H66.7199V325.88H72.1079V326.648L68.6159 335ZM73.0481 335.72C73.5121 334.912 73.8681 334.028 74.1161 333.068C74.3721 332.108 74.5001 331.192 74.5001 330.32C74.5001 329.44 74.3721 328.524 74.1161 327.572C73.8681 326.612 73.5121 325.728 73.0481 324.92H74.0441C74.5081 325.696 74.8641 326.564 75.1121 327.524C75.3681 328.476 75.4961 329.408 75.4961 330.32C75.4961 331.224 75.3681 332.156 75.1121 333.116C74.8641 334.076 74.5081 334.944 74.0441 335.72H73.0481Z" fill="black"/>
<path d="M186.667 25.236C187.299 25.324 187.795 25.556 188.155 25.932C188.515 26.308 188.695 26.78 188.695 27.348C188.695 28.196 188.383 28.852 187.759 29.316C187.135 29.772 186.239 30 185.071 30H182.311V20.88H185.059C186.083 20.88 186.871 21.084 187.423 21.492C187.975 21.892 188.251 22.464 188.251 23.208C188.251 23.696 188.111 24.112 187.831 24.456C187.551 24.792 187.163 25.028 186.667 25.164V25.236ZM183.343 21.864V24.732H184.951C185.655 24.732 186.199 24.6 186.583 24.336C186.967 24.072 187.159 23.7 187.159 23.22C187.159 22.788 186.963 22.456 186.571 22.224C186.187 21.984 185.639 21.864 184.927 21.864H183.343ZM184.927 29.016C185.791 29.016 186.455 28.868 186.919 28.572C187.383 28.276 187.615 27.848 187.615 27.288C187.615 26.776 187.383 26.388 186.919 26.124C186.463 25.852 185.807 25.716 184.951 25.716H183.343V29.016H184.927ZM194.683 25.236C195.315 25.324 195.811 25.556 196.171 25.932C196.531 26.308 196.711 26.78 196.711 27.348C196.711 28.196 196.399 28.852 195.775 29.316C195.151 29.772 194.255 30 193.087 30H190.327V20.88H193.075C194.099 20.88 194.887 21.084 195.439 21.492C195.991 21.892 196.267 22.464 196.267 23.208C196.267 23.696 196.127 24.112 195.847 24.456C195.567 24.792 195.179 25.028 194.683 25.164V25.236ZM191.359 21.864V24.732H192.967C193.671 24.732 194.215 24.6 194.599 24.336C194.983 24.072 195.175 23.7 195.175 23.22C195.175 22.788 194.979 22.456 194.587 22.224C194.203 21.984 193.655 21.864 192.943 21.864H191.359ZM192.943 29.016C193.807 29.016 194.471 28.868 194.935 28.572C195.399 28.276 195.631 27.848 195.631 27.288C195.631 26.776 195.399 26.388 194.935 26.124C194.479 25.852 193.823 25.716 192.967 25.716H191.359V29.016H192.943ZM198.979 27.828C199.147 28.26 199.395 28.6 199.723 28.848C200.059 29.088 200.479 29.208 200.983 29.208C201.551 29.208 201.999 29.036 202.327 28.692C202.663 28.34 202.831 27.868 202.831 27.276C202.831 26.684 202.659 26.22 202.315 25.884C201.971 25.548 201.511 25.38 200.935 25.38C200.279 25.38 199.727 25.652 199.279 26.196L198.403 25.956L198.763 20.88H203.383V21.84H199.711L199.471 24.936L199.507 24.948C199.707 24.764 199.947 24.628 200.227 24.54C200.515 24.452 200.819 24.408 201.139 24.408C201.675 24.408 202.151 24.524 202.567 24.756C202.991 24.988 203.319 25.32 203.551 25.752C203.783 26.176 203.899 26.668 203.899 27.228C203.899 27.812 203.775 28.328 203.527 28.776C203.287 29.224 202.947 29.568 202.507 29.808C202.067 30.048 201.563 30.168 200.995 30.168C200.259 30.168 199.635 29.988 199.123 29.628C198.611 29.268 198.247 28.784 198.031 28.176L198.979 27.828Z" fill="black"/>
<rect x="217.5" y="0.5" width="66" height="49" fill="#D9D9D9"/>
<rect x="217.5" y="0.5" width="66" height="49" stroke="black"/>
<path d="M245.346 30.72C244.89 29.944 244.534 29.076 244.278 28.116C244.022 27.148 243.894 26.216 243.894 25.32C243.894 24.416 244.022 23.484 244.278 22.524C244.534 21.564 244.89 20.696 245.346 19.92H246.342C245.878 20.728 245.518 21.612 245.262 22.572C245.014 23.524 244.89 24.44 244.89 25.32C244.89 26.184 245.018 27.096 245.274 28.056C245.53 29.016 245.886 29.904 246.342 30.72H245.346ZM250.501 30.168C249.925 30.168 249.405 30.056 248.941 29.832C248.485 29.608 248.125 29.296 247.861 28.896C247.597 28.496 247.465 28.044 247.465 27.54C247.465 27.004 247.633 26.512 247.969 26.064C248.305 25.616 248.713 25.308 249.193 25.14V25.104C248.809 24.976 248.481 24.724 248.209 24.348C247.937 23.972 247.801 23.564 247.801 23.124C247.801 22.66 247.917 22.244 248.149 21.876C248.381 21.508 248.701 21.224 249.109 21.024C249.525 20.816 249.989 20.712 250.501 20.712C251.013 20.712 251.473 20.816 251.881 21.024C252.297 21.224 252.621 21.508 252.853 21.876C253.085 22.244 253.201 22.66 253.201 23.124C253.201 23.58 253.065 23.996 252.793 24.372C252.521 24.748 252.193 24.992 251.809 25.104V25.14C252.297 25.316 252.705 25.628 253.033 26.076C253.369 26.524 253.537 27.012 253.537 27.54C253.537 28.044 253.405 28.496 253.141 28.896C252.885 29.296 252.525 29.608 252.061 29.832C251.597 30.056 251.077 30.168 250.501 30.168ZM250.501 24.672C250.981 24.672 251.377 24.536 251.689 24.264C252.001 23.984 252.157 23.628 252.157 23.196C252.157 22.748 252.001 22.384 251.689 22.104C251.377 21.816 250.981 21.672 250.501 21.672C250.021 21.672 249.625 21.816 249.313 22.104C249.001 22.384 248.845 22.748 248.845 23.196C248.845 23.628 249.001 23.984 249.313 24.264C249.633 24.536 250.029 24.672 250.501 24.672ZM250.501 29.208C251.069 29.208 251.537 29.044 251.905 28.716C252.281 28.38 252.469 27.948 252.469 27.42C252.469 26.892 252.281 26.464 251.905 26.136C251.537 25.8 251.069 25.632 250.501 25.632C249.941 25.632 249.473 25.8 249.097 26.136C248.721 26.464 248.533 26.892 248.533 27.42C248.533 27.948 248.717 28.38 249.085 28.716C249.461 29.044 249.933 29.208 250.501 29.208ZM254.663 30.72C255.127 29.912 255.483 29.028 255.731 28.068C255.987 27.108 256.115 26.192 256.115 25.32C256.115 24.44 255.987 23.524 255.731 22.572C255.483 21.612 255.127 20.728 254.663 19.92H255.659C256.123 20.696 256.479 21.564 256.727 22.524C256.983 23.476 257.111 24.408 257.111 25.32C257.111 26.224 256.983 27.156 256.727 28.116C256.479 29.076 256.123 29.944 255.659 30.72H254.663Z" fill="black"/>
<path d="M186.65 101.236C187.282 101.324 187.778 101.556 188.138 101.932C188.498 102.308 188.678 102.78 188.678 103.348C188.678 104.196 188.366 104.852 187.742 105.316C187.118 105.772 186.222 106 185.054 106H182.294V96.88H185.042C186.066 96.88 186.854 97.084 187.406 97.492C187.958 97.892 188.234 98.464 188.234 99.208C188.234 99.696 188.094 100.112 187.814 100.456C187.534 100.792 187.146 101.028 186.65 101.164V101.236ZM183.326 97.864V100.732H184.934C185.638 100.732 186.182 100.6 186.566 100.336C186.95 100.072 187.142 99.7 187.142 99.22C187.142 98.788 186.946 98.456 186.554 98.224C186.17 97.984 185.622 97.864 184.91 97.864H183.326ZM184.91 105.016C185.774 105.016 186.438 104.868 186.902 104.572C187.366 104.276 187.598 103.848 187.598 103.288C187.598 102.776 187.366 102.388 186.902 102.124C186.446 101.852 185.79 101.716 184.934 101.716H183.326V105.016H184.91ZM194.665 101.236C195.297 101.324 195.793 101.556 196.153 101.932C196.513 102.308 196.693 102.78 196.693 103.348C196.693 104.196 196.381 104.852 195.757 105.316C195.133 105.772 194.237 106 193.069 106H190.309V96.88H193.057C194.081 96.88 194.869 97.084 195.421 97.492C195.973 97.892 196.249 98.464 196.249 99.208C196.249 99.696 196.109 100.112 195.829 100.456C195.549 100.792 195.161 101.028 194.665 101.164V101.236ZM191.341 97.864V100.732H192.949C193.653 100.732 194.197 100.6 194.581 100.336C194.965 100.072 195.157 99.7 195.157 99.22C195.157 98.788 194.961 98.456 194.569 98.224C194.185 97.984 193.637 97.864 192.925 97.864H191.341ZM192.925 105.016C193.789 105.016 194.453 104.868 194.917 104.572C195.381 104.276 195.613 103.848 195.613 103.288C195.613 102.776 195.381 102.388 194.917 102.124C194.461 101.852 193.805 101.716 192.949 101.716H191.341V105.016H192.925ZM201.013 106.168C200.437 106.168 199.921 106.044 199.465 105.796C199.017 105.54 198.665 105.188 198.409 104.74C198.161 104.284 198.037 103.768 198.037 103.192C198.037 102.664 198.121 102.152 198.289 101.656C198.457 101.152 198.777 100.492 199.249 99.676L200.869 96.88H202.081L199.825 100.672L199.861 100.708C200.005 100.58 200.205 100.476 200.461 100.396C200.717 100.316 200.989 100.276 201.277 100.276C201.805 100.276 202.277 100.4 202.693 100.648C203.109 100.896 203.433 101.244 203.665 101.692C203.905 102.132 204.025 102.632 204.025 103.192C204.025 103.768 203.897 104.284 203.641 104.74C203.385 105.188 203.029 105.54 202.573 105.796C202.117 106.044 201.597 106.168 201.013 106.168ZM201.049 105.208C201.609 105.208 202.065 105.02 202.417 104.644C202.777 104.268 202.957 103.784 202.957 103.192C202.957 102.616 202.781 102.144 202.429 101.776C202.085 101.408 201.641 101.224 201.097 101.224C200.513 101.224 200.033 101.408 199.657 101.776C199.289 102.136 199.105 102.608 199.105 103.192C199.105 103.784 199.285 104.268 199.645 104.644C200.013 105.02 200.481 105.208 201.049 105.208Z" fill="black"/>
<rect x="217.5" y="76.5" width="66" height="49" fill="#D9D9D9"/>
<rect x="217.5" y="76.5" width="66" height="49" stroke="black"/>
<path d="M245.527 106.72C245.071 105.944 244.715 105.076 244.459 104.116C244.203 103.148 244.075 102.216 244.075 101.32C244.075 100.416 244.203 99.484 244.459 98.524C244.715 97.564 245.071 96.696 245.527 95.92H246.523C246.059 96.728 245.699 97.612 245.443 98.572C245.195 99.524 245.071 100.44 245.071 101.32C245.071 102.184 245.199 103.096 245.455 104.056C245.711 105.016 246.067 105.904 246.523 106.72H245.527ZM249.398 106L251.654 102.196L251.618 102.172C251.474 102.3 251.274 102.404 251.018 102.484C250.762 102.564 250.486 102.604 250.19 102.604C249.662 102.604 249.19 102.48 248.774 102.232C248.358 101.984 248.034 101.64 247.802 101.2C247.57 100.752 247.454 100.244 247.454 99.676C247.454 99.1 247.582 98.588 247.838 98.14C248.094 97.692 248.45 97.344 248.906 97.096C249.362 96.84 249.882 96.712 250.466 96.712C251.042 96.712 251.554 96.84 252.002 97.096C252.45 97.344 252.798 97.692 253.046 98.14C253.302 98.588 253.43 99.1 253.43 99.676C253.43 100.212 253.346 100.732 253.178 101.236C253.018 101.732 252.702 102.388 252.23 103.204L250.61 106H249.398ZM250.382 101.644C250.958 101.644 251.43 101.464 251.798 101.104C252.174 100.736 252.362 100.26 252.362 99.676C252.362 99.084 252.182 98.604 251.822 98.236C251.462 97.86 250.998 97.672 250.43 97.672C249.87 97.672 249.41 97.86 249.05 98.236C248.698 98.612 248.522 99.092 248.522 99.676C248.522 100.26 248.694 100.736 249.038 101.104C249.39 101.464 249.838 101.644 250.382 101.644ZM254.482 106.72C254.946 105.912 255.302 105.028 255.55 104.068C255.806 103.108 255.934 102.192 255.934 101.32C255.934 100.44 255.806 99.524 255.55 98.572C255.302 97.612 254.946 96.728 254.482 95.92H255.478C255.942 96.696 256.298 97.564 256.546 98.524C256.802 99.476 256.93 100.408 256.93 101.32C256.93 102.224 256.802 103.156 256.546 104.116C256.298 105.076 255.942 105.944 255.478 106.72H254.482Z" fill="black"/>
<path d="M187.624 177.236C188.256 177.324 188.752 177.556 189.112 177.932C189.472 178.308 189.652 178.78 189.652 179.348C189.652 180.196 189.34 180.852 188.716 181.316C188.092 181.772 187.196 182 186.028 182H183.268V172.88H186.016C187.04 172.88 187.828 173.084 188.38 173.492C188.932 173.892 189.208 174.464 189.208 175.208C189.208 175.696 189.068 176.112 188.788 176.456C188.508 176.792 188.12 177.028 187.624 177.164V177.236ZM184.3 173.864V176.732H185.908C186.612 176.732 187.156 176.6 187.54 176.336C187.924 176.072 188.116 175.7 188.116 175.22C188.116 174.788 187.92 174.456 187.528 174.224C187.144 173.984 186.596 173.864 185.884 173.864H184.3ZM185.884 181.016C186.748 181.016 187.412 180.868 187.876 180.572C188.34 180.276 188.572 179.848 188.572 179.288C188.572 178.776 188.34 178.388 187.876 178.124C187.42 177.852 186.764 177.716 185.908 177.716H184.3V181.016H185.884ZM195.64 177.236C196.272 177.324 196.768 177.556 197.128 177.932C197.488 178.308 197.668 178.78 197.668 179.348C197.668 180.196 197.356 180.852 196.732 181.316C196.108 181.772 195.212 182 194.044 182H191.284V172.88H194.032C195.056 172.88 195.844 173.084 196.396 173.492C196.948 173.892 197.224 174.464 197.224 175.208C197.224 175.696 197.084 176.112 196.804 176.456C196.524 176.792 196.136 177.028 195.64 177.164V177.236ZM192.316 173.864V176.732H193.924C194.628 176.732 195.172 176.6 195.556 176.336C195.94 176.072 196.132 175.7 196.132 175.22C196.132 174.788 195.936 174.456 195.544 174.224C195.16 173.984 194.612 173.864 193.9 173.864H192.316ZM193.9 181.016C194.764 181.016 195.428 180.868 195.892 180.572C196.356 180.276 196.588 179.848 196.588 179.288C196.588 178.776 196.356 178.388 195.892 178.124C195.436 177.852 194.78 177.716 193.924 177.716H192.316V181.016H193.9ZM200.632 182H199.492L202.936 173.84H198.736V172.88H204.124V173.648L200.632 182Z" fill="black"/>
<rect x="217.5" y="152.5" width="66" height="49" fill="#D9D9D9"/>
<rect x="217.5" y="152.5" width="66" height="49" stroke="black"/>
<path d="M228.359 166.72C227.903 165.944 227.547 165.076 227.291 164.116C227.035 163.148 226.907 162.216 226.907 161.32C226.907 160.416 227.035 159.484 227.291 158.524C227.547 157.564 227.903 156.696 228.359 155.92H229.355C228.891 156.728 228.531 157.612 228.275 158.572C228.027 159.524 227.903 160.44 227.903 161.32C227.903 162.184 228.031 163.096 228.287 164.056C228.543 165.016 228.899 165.904 229.355 166.72H228.359ZM233.154 166H232.11V158.092L230.334 159.028V157.936L232.374 156.88H233.154V166ZM238.378 166.168C237.41 166.168 236.658 165.76 236.122 164.944C235.586 164.12 235.318 162.952 235.318 161.44C235.318 159.928 235.586 158.764 236.122 157.948C236.658 157.124 237.41 156.712 238.378 156.712C239.354 156.712 240.106 157.124 240.634 157.948C241.17 158.764 241.438 159.928 241.438 161.44C241.438 162.952 241.17 164.12 240.634 164.944C240.106 165.76 239.354 166.168 238.378 166.168ZM238.378 165.208C239.01 165.208 239.498 164.884 239.842 164.236C240.194 163.58 240.37 162.648 240.37 161.44C240.37 160.232 240.194 159.304 239.842 158.656C239.498 158 239.01 157.672 238.378 157.672C237.746 157.672 237.254 158 236.902 158.656C236.558 159.304 236.386 160.232 236.386 161.44C236.386 162.648 236.558 163.58 236.902 164.236C237.254 164.884 237.746 165.208 238.378 165.208ZM242.564 166.72C243.028 165.912 243.384 165.028 243.632 164.068C243.888 163.108 244.016 162.192 244.016 161.32C244.016 160.44 243.888 159.524 243.632 158.572C243.384 157.612 243.028 156.728 242.564 155.92H243.56C244.024 156.696 244.38 157.564 244.628 158.524C244.884 159.476 245.012 160.408 245.012 161.32C245.012 162.224 244.884 163.156 244.628 164.116C244.38 165.076 244.024 165.944 243.56 166.72H242.564ZM248.055 163.768C248.455 164.032 248.871 164.36 249.303 164.752C249.743 165.144 250.135 165.548 250.479 165.964L249.687 166.636C249.407 166.228 249.071 165.824 248.679 165.424C248.287 165.016 247.899 164.676 247.515 164.404L248.055 163.768ZM260.211 166.72C259.755 165.944 259.399 165.076 259.143 164.116C258.887 163.148 258.759 162.216 258.759 161.32C258.759 160.416 258.887 159.484 259.143 158.524C259.399 157.564 259.755 156.696 260.211 155.92H261.207C260.743 156.728 260.383 157.612 260.127 158.572C259.879 159.524 259.755 160.44 259.755 161.32C259.755 162.184 259.883 163.096 260.139 164.056C260.395 165.016 260.751 165.904 261.207 166.72H260.211ZM265.006 166H263.962V158.092L262.186 159.028V157.936L264.226 156.88H265.006V166ZM269.846 166H268.802V158.092L267.026 159.028V157.936L269.066 156.88H269.846V166ZM271.65 166.72C272.114 165.912 272.47 165.028 272.718 164.068C272.974 163.108 273.102 162.192 273.102 161.32C273.102 160.44 272.974 159.524 272.718 158.572C272.47 157.612 272.114 156.728 271.65 155.92H272.646C273.11 156.696 273.466 157.564 273.714 158.524C273.97 159.476 274.098 160.408 274.098 161.32C274.098 162.224 273.97 163.156 273.714 164.116C273.466 165.076 273.11 165.944 272.646 166.72H271.65ZM227.633 182.72C227.177 181.944 226.821 181.076 226.565 180.116C226.309 179.148 226.181 178.216 226.181 177.32C226.181 176.416 226.309 175.484 226.565 174.524C226.821 173.564 227.177 172.696 227.633 171.92H228.629C228.165 172.728 227.805 173.612 227.549 174.572C227.301 175.524 227.177 176.44 227.177 177.32C227.177 178.184 227.305 179.096 227.561 180.056C227.817 181.016 228.173 181.904 228.629 182.72H227.633ZM232.428 182H231.384V174.092L229.608 175.028V173.936L231.648 172.88H232.428V182ZM235.852 181.04H240.004V182H234.46V181.136L237.196 177.98C237.756 177.34 238.156 176.808 238.396 176.384C238.636 175.96 238.756 175.564 238.756 175.196C238.756 174.74 238.608 174.372 238.312 174.092C238.016 173.812 237.628 173.672 237.148 173.672C236.748 173.672 236.388 173.792 236.068 174.032C235.756 174.272 235.496 174.616 235.288 175.064L234.4 174.632C234.64 174.016 234.996 173.544 235.468 173.216C235.948 172.88 236.516 172.712 237.172 172.712C237.692 172.712 238.152 172.812 238.552 173.012C238.952 173.212 239.264 173.496 239.488 173.864C239.712 174.232 239.824 174.66 239.824 175.148C239.824 175.612 239.692 176.104 239.428 176.624C239.164 177.144 238.732 177.748 238.132 178.436L235.852 181.04ZM241.029 182.72C241.493 181.912 241.849 181.028 242.097 180.068C242.353 179.108 242.481 178.192 242.481 177.32C242.481 176.44 242.353 175.524 242.097 174.572C241.849 173.612 241.493 172.728 241.029 171.92H242.025C242.489 172.696 242.845 173.564 243.093 174.524C243.349 175.476 243.477 176.408 243.477 177.32C243.477 178.224 243.349 179.156 243.093 180.116C242.845 181.076 242.489 181.944 242.025 182.72H241.029ZM246.52 179.768C246.92 180.032 247.336 180.36 247.768 180.752C248.208 181.144 248.6 181.548 248.944 181.964L248.152 182.636C247.872 182.228 247.536 181.824 247.144 181.424C246.752 181.016 246.364 180.676 245.98 180.404L246.52 179.768ZM258.676 182.72C258.22 181.944 257.864 181.076 257.608 180.116C257.352 179.148 257.224 178.216 257.224 177.32C257.224 176.416 257.352 175.484 257.608 174.524C257.864 173.564 258.22 172.696 258.676 171.92H259.672C259.208 172.728 258.848 173.612 258.592 174.572C258.344 175.524 258.22 176.44 258.22 177.32C258.22 178.184 258.348 179.096 258.604 180.056C258.86 181.016 259.216 181.904 259.672 182.72H258.676ZM263.471 182H262.427V174.092L260.651 175.028V173.936L262.691 172.88H263.471V182ZM268.299 176.624C268.387 176.608 268.523 176.6 268.707 176.6C269.155 176.6 269.579 176.704 269.979 176.912C270.387 177.112 270.719 177.416 270.975 177.824C271.231 178.232 271.359 178.732 271.359 179.324C271.359 179.9 271.235 180.404 270.987 180.836C270.747 181.26 270.407 181.588 269.967 181.82C269.527 182.052 269.015 182.168 268.431 182.168C267.783 182.168 267.195 181.992 266.667 181.64C266.139 181.288 265.759 180.796 265.527 180.164L266.475 179.828C266.851 180.748 267.515 181.208 268.467 181.208C269.019 181.208 269.459 181.04 269.787 180.704C270.123 180.36 270.291 179.9 270.291 179.324C270.291 178.748 270.119 178.292 269.775 177.956C269.439 177.612 268.979 177.44 268.395 177.44C268.051 177.44 267.719 177.532 267.399 177.716L266.823 176.924L269.487 173.84H265.755V172.88H270.855V173.756L268.275 176.576L268.299 176.624ZM272.376 182.72C272.84 181.912 273.196 181.028 273.444 180.068C273.7 179.108 273.828 178.192 273.828 177.32C273.828 176.44 273.7 175.524 273.444 174.572C273.196 173.612 272.84 172.728 272.376 171.92H273.372C273.836 172.696 274.192 173.564 274.44 174.524C274.696 175.476 274.824 176.408 274.824 177.32C274.824 178.224 274.696 179.156 274.44 180.116C274.192 181.076 273.836 181.944 273.372 182.72H272.376ZM243.16 198.72C242.704 197.944 242.348 197.076 242.092 196.116C241.836 195.148 241.708 194.216 241.708 193.32C241.708 192.416 241.836 191.484 242.092 190.524C242.348 189.564 242.704 188.696 243.16 187.92H244.156C243.692 188.728 243.332 189.612 243.076 190.572C242.828 191.524 242.704 192.44 242.704 193.32C242.704 194.184 242.832 195.096 243.088 196.056C243.344 197.016 243.7 197.904 244.156 198.72H243.16ZM247.955 198H246.911V190.092L245.135 191.028V189.936L247.175 188.88H247.955V198ZM254.907 195H256.035V195.948H254.907V198H253.863V195.948H249.711V195.156L253.407 188.88H254.907V195ZM253.863 190.032L250.947 195H253.863V190.032ZM256.849 198.72C257.313 197.912 257.669 197.028 257.917 196.068C258.173 195.108 258.301 194.192 258.301 193.32C258.301 192.44 258.173 191.524 257.917 190.572C257.669 189.612 257.313 188.728 256.849 187.92H257.845C258.309 188.696 258.665 189.564 258.913 190.524C259.169 191.476 259.297 192.408 259.297 193.32C259.297 194.224 259.169 195.156 258.913 196.116C258.665 197.076 258.309 197.944 257.845 198.72H256.849Z" fill="black"/>
<path d="M69.6464 77.3536C69.8417 77.5488 70.1583 77.5488 70.3536 77.3536L73.5355 74.1716C73.7308 73.9763 73.7308 73.6597 73.5355 73.4645C73.3403 73.2692 73.0237 73.2692 72.8284 73.4645L70 76.2929L67.1716 73.4645C66.9763 73.2692 66.6597 73.2692 66.4645 73.4645C66.2692 73.6597 66.2692 73.9763 66.4645 74.1716L69.6464 77.3536ZM69.5 50V77H70.5V50H69.5Z" fill="black"/>
<path d="M69.6464 154.354C69.8417 154.549 70.1583 154.549 70.3536 154.354L73.5355 151.172C73.7308 150.976 73.7308 150.66 73.5355 150.464C73.3403 150.269 73.0237 150.269 72.8284 150.464L70 153.293L67.1716 150.464C66.9763 150.269 66.6597 150.269 66.4645 150.464C66.2692 150.66 66.2692 150.976 66.4645 151.172L69.6464 154.354ZM69.5 127V154H70.5V127H69.5Z" fill="black"/>
<path d="M69.6464 229.354C69.8417 229.549 70.1583 229.549 70.3536 229.354L73.5355 226.172C73.7308 225.976 73.7308 225.66 73.5355 225.464C73.3403 225.269 73.0237 225.269 72.8284 225.464L70 228.293L67.1716 225.464C66.9763 225.269 66.6597 225.269 66.4645 225.464C66.2692 225.66 66.2692 225.976 66.4645 226.172L69.6464 229.354ZM69.5 202V229H70.5V202H69.5Z" fill="black"/>
<path d="M69.6464 305.354C69.8417 305.549 70.1583 305.549 70.3536 305.354L73.5355 302.172C73.7308 301.976 73.7308 301.66 73.5355 301.464C73.3403 301.269 73.0237 301.269 72.8284 301.464L70 304.293L67.1716 301.464C66.9763 301.269 66.6597 301.269 66.4645 301.464C66.2692 301.66 66.2692 301.976 66.4645 302.172L69.6464 305.354ZM69.5 278V305H70.5V278H69.5Z" fill="black"/>
<path d="M70.6464 388.354C70.8417 388.549 71.1583 388.549 71.3536 388.354L74.5355 385.172C74.7308 384.976 74.7308 384.66 74.5355 384.464C74.3403 384.269 74.0237 384.269 73.8284 384.464L71 387.293L68.1716 384.464C67.9763 384.269 67.6597 384.269 67.4645 384.464C67.2692 384.66 67.2692 384.976 67.4645 385.172L70.6464 388.354ZM70.5 354L70.5 388L71.5 388L71.5 354L70.5 354Z" fill="black"/>
<path d="M217.153 405.476C217.416 405.392 217.56 405.11 217.476 404.848L216.102 400.562C216.018 400.299 215.737 400.155 215.474 400.239C215.211 400.323 215.066 400.605 215.15 400.868L216.371 404.677L212.562 405.898C212.299 405.982 212.154 406.264 212.239 406.527C212.323 406.789 212.605 406.934 212.867 406.85L217.153 405.476ZM69.8932 202.489C89.7314 206.828 104.511 219.383 116.608 236.399C128.711 253.425 138.099 274.874 147.163 296.94C156.218 318.985 164.951 341.648 175.735 361.009C186.52 380.372 199.393 396.504 216.771 405.445L217.229 404.556C200.107 395.746 187.355 379.815 176.609 360.522C165.862 341.227 157.157 318.64 148.088 296.56C139.026 274.501 129.601 252.95 117.423 235.82C105.239 218.68 90.2687 205.922 70.1069 201.512L69.8932 202.489Z" fill="black"/>
<path d="M217.483 27.1297C217.555 26.8631 217.397 26.5888 217.13 26.5171L212.784 25.3493C212.517 25.2776 212.243 25.4357 212.171 25.7024C212.1 25.9691 212.258 26.2434 212.524 26.315L216.387 27.3531L215.349 31.2161C215.278 31.4827 215.436 31.757 215.702 31.8287C215.969 31.9003 216.243 31.7422 216.315 31.4756L217.483 27.1297ZM101.343 255.364C115.924 241.597 125.958 223.016 133.939 202.285C141.919 181.557 147.865 158.627 154.234 136.16C160.609 113.677 167.409 91.6515 177.103 72.6581C186.794 53.6703 199.36 37.7445 217.25 27.4332L216.75 26.5668C198.64 37.0055 185.958 53.1085 176.212 72.2036C166.47 91.2931 159.647 113.404 153.272 135.888C146.893 158.388 140.964 181.253 133.006 201.925C125.049 222.594 115.081 241.018 100.657 254.636L101.343 255.364Z" fill="black"/>
<path d="M283.512 328.892C283.452 329.161 283.622 329.428 283.892 329.488L288.285 330.462C288.555 330.522 288.822 330.352 288.881 330.082C288.941 329.813 288.771 329.546 288.501 329.486L284.596 328.62L285.462 324.715C285.522 324.445 285.352 324.178 285.082 324.119C284.813 324.059 284.546 324.229 284.486 324.498L283.512 328.892ZM283.797 26.4571C290.864 29.5909 297.329 35.9038 303.084 44.7072C308.837 53.5064 313.857 64.7592 318.048 77.7164C326.428 103.63 331.47 136.3 332.438 169.64C333.405 202.979 330.298 236.958 322.401 265.492C314.499 294.043 301.825 317.053 283.731 328.578L284.269 329.422C302.675 317.697 315.439 294.394 323.365 265.758C331.295 237.105 334.407 203.021 333.437 169.61C332.467 136.2 327.415 103.432 318.999 77.4086C314.791 64.3971 309.737 53.0561 303.921 44.16C298.108 35.2681 291.511 28.7841 284.203 25.5429L283.797 26.4571Z" fill="black"/>
<path d="M283.505 252.932C283.467 253.205 283.658 253.458 283.932 253.495L288.39 254.109C288.664 254.146 288.916 253.955 288.954 253.682C288.991 253.408 288.8 253.156 288.526 253.118L284.564 252.573L285.109 248.61C285.147 248.337 284.955 248.084 284.682 248.047C284.408 248.009 284.156 248.2 284.118 248.474L283.505 252.932ZM283.675 102.38C292.198 109.668 298.41 121.222 302.435 134.876C306.457 148.522 308.281 164.221 308.063 179.743C307.844 195.265 305.584 210.59 301.454 223.488C297.319 236.399 291.329 246.817 283.698 252.602L284.302 253.398C292.171 247.433 298.244 236.788 302.406 223.793C306.572 210.785 308.843 195.36 309.063 179.757C309.282 164.154 307.45 148.353 303.394 134.593C299.34 120.841 293.052 109.082 284.325 101.62L283.675 102.38Z" fill="black"/>
<path d="M250.646 77.3536C250.842 77.5488 251.158 77.5488 251.354 77.3536L254.536 74.1716C254.731 73.9763 254.731 73.6597 254.536 73.4645C254.34 73.2692 254.024 73.2692 253.828 73.4645L251 76.2929L248.172 73.4645C247.976 73.2692 247.66 73.2692 247.464 73.4645C247.269 73.6597 247.269 73.9763 247.464 74.1716L250.646 77.3536ZM250.5 49L250.5 77L251.5 77L251.5 49L250.5 49Z" fill="black"/>
<path d="M250.646 152.354C250.842 152.549 251.158 152.549 251.354 152.354L254.536 149.172C254.731 148.976 254.731 148.66 254.536 148.464C254.34 148.269 254.024 148.269 253.828 148.464L251 151.293L248.172 148.464C247.976 148.269 247.66 148.269 247.464 148.464C247.269 148.66 247.269 148.976 247.464 149.172L250.646 152.354ZM250.5 126L250.5 152L251.5 152L251.5 126L250.5 126Z" fill="black"/>
<path d="M252.646 229.354C252.842 229.549 253.158 229.549 253.354 229.354L256.536 226.172C256.731 225.976 256.731 225.66 256.536 225.464C256.34 225.269 256.024 225.269 255.828 225.464L253 228.293L250.172 225.464C249.976 225.269 249.66 225.269 249.464 225.464C249.269 225.66 249.269 225.976 249.464 226.172L252.646 229.354ZM252.5 201L252.5 229L253.5 229L253.5 201L252.5 201Z" fill="black"/>
<path d="M103.013 404.5C102.737 404.493 102.507 404.711 102.5 404.987L102.384 409.486C102.377 409.762 102.595 409.991 102.871 409.998C103.147 410.006 103.377 409.788 103.384 409.511L103.487 405.513L107.486 405.616C107.762 405.623 107.991 405.405 107.998 405.129C108.005 404.853 107.787 404.623 107.511 404.616L103.013 404.5ZM253.775 429.554C200.473 456.454 141.38 444.682 103.362 404.656L102.637 405.344C140.958 445.689 200.527 457.546 254.225 430.446L253.775 429.554Z" fill="black"/>
<path d="M283.646 16.6464C283.451 16.8417 283.451 17.1583 283.646 17.3536L286.828 20.5355C287.024 20.7308 287.34 20.7308 287.536 20.5355C287.731 20.3403 287.731 20.0237 287.536 19.8284L284.707 17L287.536 14.1716C287.731 13.9763 287.731 13.6597 287.536 13.4645C287.34 13.2692 287.024 13.2692 286.828 13.4645L283.646 16.6464ZM284 265.5C306.531 265.5 323.072 249.792 333.883 226.46C344.697 203.123 349.844 172.043 349.562 140.995C349.281 109.947 343.57 78.8709 332.617 55.5375C321.67 32.2185 305.414 16.5 284 16.5V17.5C304.836 17.5 320.83 32.7815 331.711 55.9625C342.586 79.1291 348.282 110.053 348.563 141.005C348.843 171.957 343.709 202.877 332.976 226.04C322.241 249.208 305.969 264.5 284 264.5V265.5Z" fill="black"/>
<path d="M102.647 177.646C102.451 177.842 102.451 178.158 102.647 178.353L105.829 181.535C106.024 181.731 106.34 181.731 106.536 181.535C106.731 181.34 106.731 181.024 106.536 180.828L103.707 178L106.536 175.171C106.731 174.976 106.731 174.66 106.536 174.464C106.34 174.269 106.024 174.269 105.829 174.464L102.647 177.646ZM252.757 352.563C238.43 360.536 226.507 363.761 216.47 363.356C206.447 362.951 198.255 358.925 191.378 352.296C184.492 345.657 178.922 336.403 174.181 325.554C169.441 314.707 165.543 302.297 161.982 289.367C154.871 263.543 149.103 235.599 140.684 214.161C136.472 203.434 131.576 194.28 125.477 187.802C119.366 181.31 112.037 177.5 103 177.5L103 178.5C111.713 178.5 118.791 182.158 124.749 188.487C130.721 194.83 135.56 203.847 139.753 214.526C148.147 235.901 153.879 263.707 161.018 289.633C164.583 302.578 168.497 315.042 173.265 325.954C178.032 336.863 183.665 346.249 190.684 353.016C197.714 359.793 206.132 363.939 216.429 364.355C226.712 364.77 238.82 361.463 253.243 353.437L252.757 352.563Z" fill="black"/>
</svg>
