<svg width="186" height="144" viewBox="0 0 186 144" fill="none" xmlns="http://www.w3.org/2000/svg">
<path d="M65.6453 77H64.4333L62.1533 73.136H61.9373H60.2573V77H59.2253V67.88H61.8293C62.9253 67.88 63.7693 68.112 64.3613 68.576C64.9533 69.04 65.2493 69.696 65.2493 70.544C65.2493 71.184 65.0733 71.712 64.7213 72.128C64.3773 72.544 63.8773 72.832 63.2213 72.992L65.6453 77ZM61.7453 72.152C62.5293 72.152 63.1293 72.012 63.5453 71.732C63.9693 71.452 64.1813 71.056 64.1813 70.544C64.1813 70.008 63.9693 69.596 63.5453 69.308C63.1293 69.012 62.5293 68.864 61.7453 68.864H60.2573V72.152H61.7453ZM69.3028 77H68.2588V69.092L66.4828 70.028V68.936L68.5228 67.88H69.3028V77Z" fill="black"/>
<path d="M64.4012 13H63.1892L60.9092 9.136H60.6932H59.0132V13H57.9812V3.88H60.5852C61.6812 3.88 62.5252 4.112 63.1172 4.576C63.7092 5.04 64.0052 5.696 64.0052 6.544C64.0052 7.184 63.8292 7.712 63.4772 8.128C63.1332 8.544 62.6332 8.832 61.9772 8.992L64.4012 13ZM60.5012 8.152C61.2852 8.152 61.8852 8.012 62.3012 7.732C62.7252 7.452 62.9372 7.056 62.9372 6.544C62.9372 6.008 62.7252 5.596 62.3012 5.308C61.8852 5.012 61.2852 4.864 60.5012 4.864H59.0132V8.152H60.5012ZM66.9187 13H65.7787L69.2227 4.84H65.0227V3.88H70.4107V4.648L66.9187 13Z" fill="black"/>
<path d="M121.514 141H120.302L118.022 137.136H117.806H116.126V141H115.094V131.88H117.698C118.794 131.88 119.638 132.112 120.23 132.576C120.822 133.04 121.118 133.696 121.118 134.544C121.118 135.184 120.942 135.712 120.59 136.128C120.246 136.544 119.746 136.832 119.09 136.992L121.514 141ZM117.614 136.152C118.398 136.152 118.998 136.012 119.414 135.732C119.838 135.452 120.05 135.056 120.05 134.544C120.05 134.008 119.838 133.596 119.414 133.308C118.998 133.012 118.398 132.864 117.614 132.864H116.126V136.152H117.614ZM125.16 135.624C125.248 135.608 125.384 135.6 125.568 135.6C126.016 135.6 126.44 135.704 126.84 135.912C127.248 136.112 127.58 136.416 127.836 136.824C128.092 137.232 128.22 137.732 128.22 138.324C128.22 138.9 128.096 139.404 127.848 139.836C127.608 140.26 127.268 140.588 126.828 140.82C126.388 141.052 125.876 141.168 125.292 141.168C124.644 141.168 124.056 140.992 123.528 140.64C123 140.288 122.62 139.796 122.388 139.164L123.336 138.828C123.712 139.748 124.376 140.208 125.328 140.208C125.88 140.208 126.32 140.04 126.648 139.704C126.984 139.36 127.152 138.9 127.152 138.324C127.152 137.748 126.98 137.292 126.636 136.956C126.3 136.612 125.84 136.44 125.256 136.44C124.912 136.44 124.58 136.532 124.26 136.716L123.684 135.924L126.348 132.84H122.616V131.88H127.716V132.756L125.136 135.576L125.16 135.624Z" fill="black"/>
<path d="M7.44417 141H6.23217L3.95217 137.136H3.73617H2.05617V141H1.02417V131.88H3.62817C4.72417 131.88 5.56817 132.112 6.16017 132.576C6.75217 133.04 7.04817 133.696 7.04817 134.544C7.04817 135.184 6.87217 135.712 6.52017 136.128C6.17617 136.544 5.67617 136.832 5.02017 136.992L7.44417 141ZM3.54417 136.152C4.32817 136.152 4.92817 136.012 5.34417 135.732C5.76817 135.452 5.98017 135.056 5.98017 134.544C5.98017 134.008 5.76817 133.596 5.34417 133.308C4.92817 133.012 4.32817 132.864 3.54417 132.864H2.05617V136.152H3.54417ZM9.26564 138.828C9.43364 139.26 9.68164 139.6 10.0096 139.848C10.3456 140.088 10.7656 140.208 11.2696 140.208C11.8376 140.208 12.2856 140.036 12.6136 139.692C12.9496 139.34 13.1176 138.868 13.1176 138.276C13.1176 137.684 12.9456 137.22 12.6016 136.884C12.2576 136.548 11.7976 136.38 11.2216 136.38C10.5656 136.38 10.0136 136.652 9.56564 137.196L8.68964 136.956L9.04964 131.88H13.6696V132.84H9.99764L9.75764 135.936L9.79364 135.948C9.99364 135.764 10.2336 135.628 10.5136 135.54C10.8016 135.452 11.1056 135.408 11.4256 135.408C11.9616 135.408 12.4376 135.524 12.8536 135.756C13.2776 135.988 13.6056 136.32 13.8376 136.752C14.0696 137.176 14.1856 137.668 14.1856 138.228C14.1856 138.812 14.0616 139.328 13.8136 139.776C13.5736 140.224 13.2336 140.568 12.7936 140.808C12.3536 141.048 11.8496 141.168 11.2816 141.168C10.5456 141.168 9.92164 140.988 9.40964 140.628C8.89764 140.268 8.53364 139.784 8.31764 139.176L9.26564 138.828Z" fill="black"/>
<path d="M121.667 77H120.455L118.175 73.136H117.959H116.279V77H115.247V67.88H117.851C118.947 67.88 119.791 68.112 120.383 68.576C120.975 69.04 121.271 69.696 121.271 70.544C121.271 71.184 121.095 71.712 120.743 72.128C120.399 72.544 119.899 72.832 119.243 72.992L121.667 77ZM117.767 72.152C118.551 72.152 119.151 72.012 119.567 71.732C119.991 71.452 120.203 71.056 120.203 70.544C120.203 70.008 119.991 69.596 119.567 69.308C119.151 69.012 118.551 68.864 117.767 68.864H116.279V72.152H117.767ZM123.908 76.04H128.06V77H122.516V76.136L125.252 72.98C125.812 72.34 126.212 71.808 126.452 71.384C126.692 70.96 126.812 70.564 126.812 70.196C126.812 69.74 126.664 69.372 126.368 69.092C126.072 68.812 125.684 68.672 125.204 68.672C124.804 68.672 124.444 68.792 124.124 69.032C123.812 69.272 123.552 69.616 123.344 70.064L122.456 69.632C122.696 69.016 123.052 68.544 123.524 68.216C124.004 67.88 124.572 67.712 125.228 67.712C125.748 67.712 126.208 67.812 126.608 68.012C127.008 68.212 127.32 68.496 127.544 68.864C127.768 69.232 127.88 69.66 127.88 70.148C127.88 70.612 127.748 71.104 127.484 71.624C127.22 72.144 126.788 72.748 126.188 73.436L123.908 76.04Z" fill="black"/>
<path d="M120.786 13H119.574L117.294 9.136H117.078H115.398V13H114.366V3.88H116.97C118.066 3.88 118.91 4.112 119.502 4.576C120.094 5.04 120.39 5.696 120.39 6.544C120.39 7.184 120.214 7.712 119.862 8.128C119.518 8.544 119.018 8.832 118.362 8.992L120.786 13ZM116.886 8.152C117.67 8.152 118.27 8.012 118.686 7.732C119.11 7.452 119.322 7.056 119.322 6.544C119.322 6.008 119.11 5.596 118.686 5.308C118.27 5.012 117.67 4.864 116.886 4.864H115.398V8.152H116.886ZM124.803 13.168C124.227 13.168 123.707 13.056 123.243 12.832C122.787 12.608 122.427 12.296 122.163 11.896C121.899 11.496 121.767 11.044 121.767 10.54C121.767 10.004 121.935 9.512 122.271 9.064C122.607 8.616 123.015 8.308 123.495 8.14V8.104C123.111 7.976 122.783 7.724 122.511 7.348C122.239 6.972 122.103 6.564 122.103 6.124C122.103 5.66 122.219 5.244 122.451 4.876C122.683 4.508 123.003 4.224 123.411 4.024C123.827 3.816 124.291 3.712 124.803 3.712C125.315 3.712 125.775 3.816 126.183 4.024C126.599 4.224 126.923 4.508 127.155 4.876C127.387 5.244 127.503 5.66 127.503 6.124C127.503 6.58 127.367 6.996 127.095 7.372C126.823 7.748 126.495 7.992 126.111 8.104V8.14C126.599 8.316 127.007 8.628 127.335 9.076C127.671 9.524 127.839 10.012 127.839 10.54C127.839 11.044 127.707 11.496 127.443 11.896C127.187 12.296 126.827 12.608 126.363 12.832C125.899 13.056 125.379 13.168 124.803 13.168ZM124.803 7.672C125.283 7.672 125.679 7.536 125.991 7.264C126.303 6.984 126.459 6.628 126.459 6.196C126.459 5.748 126.303 5.384 125.991 5.104C125.679 4.816 125.283 4.672 124.803 4.672C124.323 4.672 123.927 4.816 123.615 5.104C123.303 5.384 123.147 5.748 123.147 6.196C123.147 6.628 123.303 6.984 123.615 7.264C123.935 7.536 124.331 7.672 124.803 7.672ZM124.803 12.208C125.371 12.208 125.839 12.044 126.207 11.716C126.583 11.38 126.771 10.948 126.771 10.42C126.771 9.892 126.583 9.464 126.207 9.136C125.839 8.8 125.371 8.632 124.803 8.632C124.243 8.632 123.775 8.8 123.399 9.136C123.023 9.464 122.835 9.892 122.835 10.42C122.835 10.948 123.019 11.38 123.387 11.716C123.763 12.044 124.235 12.208 124.803 12.208Z" fill="black"/>
<path d="M178.52 141H177.308L175.028 137.136H174.812H173.132V141H172.1V131.88H174.704C175.8 131.88 176.644 132.112 177.236 132.576C177.828 133.04 178.124 133.696 178.124 134.544C178.124 135.184 177.948 135.712 177.596 136.128C177.252 136.544 176.752 136.832 176.096 136.992L178.52 141ZM174.62 136.152C175.404 136.152 176.004 136.012 176.42 135.732C176.844 135.452 177.056 135.056 177.056 134.544C177.056 134.008 176.844 133.596 176.42 133.308C176.004 133.012 175.404 132.864 174.62 132.864H173.132V136.152H174.62ZM184.29 138H185.418V138.948H184.29V141H183.246V138.948H179.094V138.156L182.79 131.88H184.29V138ZM183.246 133.032L180.33 138H183.246V133.032Z" fill="black"/>
<path d="M64.4266 141H63.2146L60.9346 137.136H60.7186H59.0386V141H58.0066V131.88H60.6106C61.7066 131.88 62.5506 132.112 63.1426 132.576C63.7346 133.04 64.0306 133.696 64.0306 134.544C64.0306 135.184 63.8546 135.712 63.5026 136.128C63.1586 136.544 62.6586 136.832 62.0026 136.992L64.4266 141ZM60.5266 136.152C61.3106 136.152 61.9106 136.012 62.3266 135.732C62.7506 135.452 62.9626 135.056 62.9626 134.544C62.9626 134.008 62.7506 133.596 62.3266 133.308C61.9106 133.012 61.3106 132.864 60.5266 132.864H59.0386V136.152H60.5266ZM68.3001 141.168C67.7241 141.168 67.2081 141.044 66.7521 140.796C66.3041 140.54 65.9521 140.188 65.6961 139.74C65.4481 139.284 65.3241 138.768 65.3241 138.192C65.3241 137.664 65.4081 137.152 65.5761 136.656C65.7441 136.152 66.0641 135.492 66.5361 134.676L68.1561 131.88H69.3681L67.1121 135.672L67.1481 135.708C67.2921 135.58 67.4921 135.476 67.7481 135.396C68.0041 135.316 68.2761 135.276 68.5641 135.276C69.0921 135.276 69.5641 135.4 69.9801 135.648C70.3961 135.896 70.7201 136.244 70.9521 136.692C71.1921 137.132 71.3121 137.632 71.3121 138.192C71.3121 138.768 71.1841 139.284 70.9281 139.74C70.6721 140.188 70.3161 140.54 69.8601 140.796C69.4041 141.044 68.8841 141.168 68.3001 141.168ZM68.3361 140.208C68.8961 140.208 69.3521 140.02 69.7041 139.644C70.0641 139.268 70.2441 138.784 70.2441 138.192C70.2441 137.616 70.0681 137.144 69.7161 136.776C69.3721 136.408 68.9281 136.224 68.3841 136.224C67.8001 136.224 67.3201 136.408 66.9441 136.776C66.5761 137.136 66.3921 137.608 66.3921 138.192C66.3921 138.784 66.5721 139.268 66.9321 139.644C67.3001 140.02 67.7681 140.208 68.3361 140.208Z" fill="black"/>
<line x1="76" y1="72.5" x2="106" y2="72.5" stroke="black"/>
<line x1="6.65011" y1="127.643" x2="55.6501" y2="79.6428" stroke="black"/>
<line x1="64.5" y1="81" x2="64.5" y2="128" stroke="black"/>
<line x1="121.5" y1="80" x2="121.5" y2="128" stroke="black"/>
<line x1="131.357" y1="78.6501" x2="179.357" y2="127.65" stroke="black"/>
<line x1="11.7838" y1="127.549" x2="109.784" y2="80.5492" stroke="black"/>
<line x1="116.643" y1="127.35" x2="71.6426" y2="81.3496" stroke="black"/>
<line x1="70.6311" y1="127.662" x2="113.631" y2="80.6625" stroke="black"/>
<line x1="172.786" y1="127.452" x2="75.7858" y2="81.4518" stroke="black"/>
<line x1="18" y1="136.5" x2="52" y2="136.5" stroke="black"/>
<line x1="76" y1="136.5" x2="110" y2="136.5" stroke="black"/>
<line x1="76" y1="9.5" x2="110" y2="9.5" stroke="black"/>
<line x1="131" y1="136.5" x2="165" y2="136.5" stroke="black"/>
<line x1="65.5" y1="15" x2="65.5" y2="64" stroke="black"/>
<line x1="70.3608" y1="14.6539" x2="117.361" y2="63.6539" stroke="black"/>
<line x1="113.387" y1="15.3162" x2="73.3873" y2="64.3162" stroke="black"/>
</svg>
